<?xml version="1.0" standalone="no"?>
<!DOCTYPE svg PUBLIC "-//W3C//DTD SVG 20010904//EN"
 "http://www.w3.org/TR/2001/REC-SVG-20010904/DTD/svg10.dtd">
<svg version="1.0" xmlns="http://www.w3.org/2000/svg"
 width="300.000000pt" height="300.000000pt" viewBox="0 0 300.000000 300.000000"
 preserveAspectRatio="xMidYMid meet">
<metadata>
Created by potrace 1.10, written by Peter Selinger 2001-2011
</metadata>
<g transform="translate(0.000000,300.000000) scale(0.100000,-0.100000)"
fill="#000000" stroke="none">
<path d="M0 1500 l0 -1500 1500 0 1500 0 0 1500 0 1500 -1500 0 -1500 0 0
-1500z m1730 1324 c215 -38 430 -132 577 -251 l53 -43 75 22 c41 12 76 20 79
17 2 -2 -4 -38 -13 -79 l-18 -74 45 -56 c141 -172 234 -377 272 -598 20 -112
27 -292 13 -292 -5 0 -14 4 -22 9 -10 6 -10 10 -1 16 11 7 9 94 -6 258 l-7 67
-225 0 c-124 0 -222 3 -218 7 4 4 96 7 205 7 110 1 202 4 206 8 10 10 -3 69
-20 92 -11 15 -18 16 -28 8 -24 -21 -538 -14 -551 7 -2 3 121 5 275 3 245 -2
279 -1 279 13 0 12 -15 15 -78 15 -71 0 -78 2 -87 23 -11 24 -69 37 -88 18 -7
-7 -16 -2 -29 15 -26 32 -71 32 -103 -1 -14 -13 -25 -31 -25 -40 0 -12 -13
-15 -67 -15 -72 0 -81 9 -14 14 33 3 50 11 80 42 65 66 57 64 231 64 105 0
159 3 155 10 -4 6 -72 11 -163 12 l-157 2 130 3 c72 2 136 5 143 8 10 4 9 12
-4 37 -28 54 -143 218 -147 210 -2 -4 -14 -55 -27 -114 -15 -67 -29 -108 -36
-108 -7 0 -21 11 -32 25 -11 14 -25 25 -31 25 -6 0 -190 -178 -410 -395 -219
-217 -402 -395 -405 -395 -16 0 31 49 412 425 l403 398 32 -31 32 -31 34 157
c19 86 34 166 35 177 1 11 6 23 11 27 22 17 -25 6 -186 -44 -93 -28 -169 -54
-169 -58 0 -5 16 -22 35 -38 l34 -31 -82 -78 c-45 -44 -178 -171 -296 -284
-118 -112 -318 -304 -445 -427 l-231 -224 -34 38 c-29 31 -33 33 -27 13 67
-243 72 -264 61 -269 -8 -4 -4 -27 13 -83 14 -42 27 -75 29 -73 3 3 0 21 -7
40 -6 20 -9 49 -5 66 6 29 56 80 78 80 7 0 51 39 99 88 76 76 88 94 101 142
15 63 38 76 55 33 6 -15 23 -73 37 -128 15 -55 29 -108 31 -117 3 -11 0 -18
-9 -18 -13 0 -13 -5 -1 -37 7 -21 13 -46 14 -55 0 -20 8 -22 29 -9 12 8 13 14
3 36 -7 14 -12 44 -12 66 0 107 104 166 180 103 17 -15 32 -25 34 -23 1 2 15
52 31 112 32 122 47 134 69 55 61 -215 67 -241 56 -248 -9 -5 -7 -23 6 -65 16
-50 20 -55 25 -34 4 13 7 173 8 354 l1 330 85 85 85 85 90 -90 90 -90 0 -200
c0 -144 4 -215 15 -255 8 -30 15 -56 15 -57 0 -2 -6 -3 -14 -3 -19 0 34 -164
63 -193 l21 -21 0 54 c0 60 -28 104 -59 93 -13 -5 -14 -3 -3 8 6 7 12 20 12
28 0 22 31 51 55 51 24 0 61 -35 67 -64 8 -44 26 -22 49 60 42 151 56 150 100
-7 32 -113 34 -123 19 -114 -14 9 -13 -1 14 -87 l24 -78 -24 0 c-28 0 -28 1
-10 -36 8 -16 21 -53 30 -81 l15 -53 -25 0 -24 0 20 -37 c21 -39 44 -136 37
-156 -2 -6 7 -25 19 -40 55 -65 5 -197 -73 -197 -14 0 -23 -6 -23 -15 0 -11
18 -15 78 -17 75 -3 77 -4 77 -28 l0 -25 -1347 -3 -1348 -2 0 30 0 30 65 0
c51 0 65 3 65 15 0 8 -9 15 -20 15 -32 0 -67 28 -79 62 -17 50 -14 112 8 132
12 11 20 37 25 79 3 34 17 83 29 109 l23 47 -27 3 -27 3 25 80 c14 44 29 84
34 89 17 18 9 26 -21 20 l-30 -6 24 70 c13 38 29 79 35 91 10 17 9 21 -4 21
-18 0 -18 -1 -6 36 6 16 24 75 41 132 20 67 36 102 45 102 9 0 24 -31 41 -85
14 -47 28 -85 31 -85 2 0 45 37 94 83 49 45 97 81 105 79 15 -3 50 26 196 165
l67 64 131 -135 132 -135 147 140 c80 78 295 283 476 457 182 173 348 332 370
353 l39 39 -38 39 -39 40 25 10 c14 5 65 22 112 36 47 14 86 28 86 30 0 11
-214 142 -280 173 -419 191 -898 153 -1274 -101 -82 -56 -229 -190 -299 -275
-29 -34 -67 -93 -67 -103 0 -10 74 -9 90 1 13 8 13 10 -1 10 -22 0 -41 24 -34
42 8 20 89 78 109 78 8 0 19 7 23 15 12 20 82 55 111 55 37 0 78 -27 103 -67
27 -45 37 -53 65 -53 11 0 29 -9 39 -20 16 -18 17 -22 4 -34 -8 -8 -34 -17
-59 -20 -25 -3 -49 -6 -55 -6 -5 -1 1 -5 14 -9 14 -4 26 -13 29 -21 3 -12 2
-12 -6 -2 -7 10 -60 12 -245 10 -131 -2 -237 0 -237 3 0 21 119 170 204 255
310 309 735 443 1166 368z m35 -149 c17 -13 52 -44 78 -69 45 -44 67 -56 67
-38 0 4 15 9 33 9 27 2 29 1 11 -7 -12 -5 -25 -13 -29 -19 -14 -23 -43 -8
-120 64 l-80 74 -152 1 c-96 0 -153 -4 -153 -10 0 -6 56 -10 148 -10 l149 0
80 -75 c83 -77 105 -86 139 -60 22 17 34 19 34 6 0 -5 -16 -16 -35 -25 -32
-16 -38 -16 -68 -1 -18 8 -59 41 -92 73 l-58 57 -143 5 c-151 5 -189 17 -151
45 14 10 52 12 165 8 134 -4 150 -7 177 -28z m-867 -114 c11 -6 33 -5 60 2 31
8 48 8 60 1 26 -17 27 -44 3 -51 -12 -3 -21 -9 -21 -14 0 -5 -6 -6 -13 -3 -7
2 -22 -4 -32 -16 -24 -26 -37 -25 -73 5 -17 14 -36 25 -44 25 -25 0 -38 21
-25 41 13 20 57 25 85 10z m702 -29 c96 -45 153 -157 132 -259 -24 -117 -117
-193 -234 -193 -69 0 -111 16 -163 61 -90 79 -101 235 -24 324 76 86 189 112
289 67z m810 -101 c0 -12 -28 -22 -34 -12 -3 5 -3 11 1 15 9 9 33 7 33 -3z
m-1293 -28 c-9 -9 -20 -14 -24 -10 -3 4 2 14 13 21 25 19 33 10 11 -11z m67
-28 c-3 -7 -17 -18 -31 -24 -21 -10 -29 -9 -44 5 -11 10 -17 19 -14 22 3 3 14
-3 25 -13 11 -10 20 -13 20 -7 0 6 10 14 23 18 l22 7 -22 10 c-13 6 -23 17
-23 25 0 12 6 10 24 -7 14 -13 22 -29 20 -36z m756 35 c0 -20 -46 -58 -57 -46
-5 5 44 65 55 66 1 0 2 -9 2 -20z m71 -77 c-9 -12 -22 -23 -28 -23 -7 0 -13
-4 -13 -10 0 -5 -4 -10 -9 -10 -20 0 4 43 30 54 l28 12 -29 11 c-23 8 -30 18
-30 37 0 25 0 25 34 -11 32 -36 33 -38 17 -60z m-91 -1 c13 -10 21 -24 19 -30
-2 -7 -18 0 -39 18 -39 33 -20 44 20 12z m310 2 c0 -16 -29 -46 -237 -244
-355 -340 -513 -491 -636 -612 -77 -75 -149 -139 -160 -142 -28 -7 -15 6 488
487 242 232 463 445 490 473 60 61 55 58 55 38z m64 -97 c-11 -5 -59 -48 -109
-96 l-90 -86 99 102 c55 56 104 99 109 96 5 -3 1 -10 -9 -16z m-94 -22 c-13
-14 -26 -23 -28 -20 -7 7 29 45 41 45 6 0 0 -11 -13 -25z m-1500 -49 c19 -1
-45 -3 -142 -4 -138 -2 -180 -5 -191 -16 -22 -23 -79 -145 -75 -164 3 -14 17
-17 93 -17 l90 0 17 34 c30 60 61 83 117 89 37 3 58 0 76 -12 13 -9 36 -17 50
-18 14 -1 25 -5 25 -8 0 -3 12 -11 28 -17 15 -7 33 -26 40 -43 l14 -30 118 0
c94 0 120 -3 130 -16 11 -12 10 -18 -3 -31 -14 -14 -63 -17 -409 -18 -216 -2
-401 -6 -410 -10 -26 -10 -23 -44 5 -50 12 -3 205 -4 429 -2 403 3 408 3 438
25 58 43 76 45 105 10 23 -28 33 -31 89 -35 41 -2 76 2 99 12 28 11 42 12 64
4 15 -6 36 -12 47 -15 34 -6 30 -14 -7 -14 -21 0 -46 6 -57 12 -15 10 -22 10
-32 0 -7 -7 -43 -12 -96 -12 -80 0 -84 1 -109 30 -13 17 -28 30 -32 30 -4 0
-65 -54 -135 -121 -71 -66 -131 -117 -134 -114 -7 7 116 129 158 157 24 16 1
17 -427 17 l-453 1 -1 -37 c0 -21 -3 -50 -5 -65 l-5 -28 243 -2 243 -2 -250
-6 c-137 -3 -253 -4 -256 -3 -7 3 1 54 27 171 l15 72 430 0 c279 0 429 3 429
10 0 6 -53 10 -140 10 -134 0 -140 1 -140 20 0 32 -45 72 -77 68 -18 -2 -36 5
-52 20 -29 26 -86 30 -119 6 -26 -18 -52 -65 -52 -94 0 -19 -6 -20 -135 -20
l-134 0 15 43 c8 23 30 76 50 117 l35 75 162 -3 c89 -1 178 -4 197 -6z m98 -3
c-10 -2 -26 -2 -35 0 -10 3 -2 5 17 5 19 0 27 -2 18 -5z m499 -26 c3 -4 -44
-7 -106 -7 l-112 0 -42 -39 -42 -39 -43 40 c-26 24 -49 37 -58 34 -9 -3 -12
-1 -9 4 10 17 31 11 70 -20 l37 -29 33 25 c19 14 45 28 59 32 32 9 204 7 213
-1z m-353 -67 c24 -22 46 -40 49 -40 3 0 27 18 52 40 l46 40 112 0 c76 0 107
-3 97 -10 -8 -5 -59 -10 -112 -10 -94 0 -97 -1 -127 -30 -16 -17 -43 -33 -60
-36 -26 -5 -36 0 -78 40 -26 25 -42 46 -35 46 7 0 32 -18 56 -40z m1096 -15
c-18 -19 -35 -33 -38 -31 -5 6 51 66 62 66 6 0 -5 -16 -24 -35z m-166 -149
c-21 -19 -40 -30 -42 -25 -5 11 49 58 67 59 8 0 -3 -15 -25 -34z m-625 -136
c65 -81 64 -86 -3 -16 -56 58 -64 71 -54 84 12 13 13 13 16 -4 2 -10 20 -39
41 -64z m631 77 c0 -1 -48 -50 -107 -107 l-108 -105 105 108 c97 99 110 112
110 104z m-1117 -164 c-13 -2 -33 -2 -45 0 -13 2 -3 4 22 4 25 0 35 -2 23 -4z
m534 -31 c-10 -10 -17 -23 -17 -29 0 -15 -146 -153 -161 -153 -8 0 23 34 69
76 45 42 82 81 82 87 0 14 32 49 38 42 3 -3 -2 -13 -11 -23z m1309 6 c19 -23
19 -23 -2 -5 -11 9 -27 17 -35 17 -7 0 -49 -35 -92 -77 -90 -89 -89 -70 0 25
66 69 96 78 129 40z m-1796 -15 c-46 -7 -54 -13 -42 -25 19 -19 14 -29 -8 -16
-22 14 -6 26 -216 -175 -81 -77 -104 -96 -104 -83 0 4 50 54 173 176 48 47 94
92 102 101 14 15 -4 16 -232 17 -136 1 -254 -2 -262 -7 -26 -16 20 -20 195
-18 94 2 180 0 190 -4 10 -4 -81 -8 -203 -8 l-223 -1 0 28 0 27 327 -4 c181
-2 317 -6 303 -8z m1903 -132 c-1 -2 -28 20 -60 49 l-57 53 -13 -29 c-7 -16
-12 -43 -13 -60 0 -46 -39 -95 -98 -127 -30 -16 -56 -27 -59 -24 -3 3 18 17
45 31 68 35 88 63 102 149 7 39 14 77 15 84 2 6 34 -19 72 -55 37 -37 67 -69
66 -71z m-2491 58 c-12 -5 -23 -16 -23 -26 -2 -31 2 -137 6 -163 29 -184 35
-223 31 -227 -5 -5 -31 107 -45 197 -6 36 -11 104 -11 151 l0 86 32 -5 c30 -5
31 -6 10 -13z m1668 -55 c-36 -36 -87 -84 -115 -107 -46 -39 -48 -40 -27 -11
28 41 180 184 195 184 6 0 -18 -30 -53 -66z m875 -43 c18 -16 38 -30 44 -32
15 -5 -13 -170 -45 -264 -13 -38 -22 -59 -20 -45 3 14 15 85 27 159 l22 134
-41 39 c-48 44 -36 52 13 9z m-1416 -159 c-46 -49 -91 -92 -99 -96 -8 -4 28
36 80 89 52 52 97 95 99 95 3 0 -33 -40 -80 -88z m391 26 l23 -33 -26 24 c-15
14 -27 28 -27 33 0 14 5 9 30 -24z"/>
<path d="M653 2380 c-18 -11 -35 -30 -38 -43 -5 -20 -11 -22 -41 -19 -29 4
-36 1 -41 -17 -3 -14 -13 -21 -29 -21 -15 0 -24 -6 -24 -15 0 -13 31 -15 221
-15 172 0 220 3 216 13 -2 7 -25 13 -58 13 -35 1 -53 6 -51 13 5 25 -28 80
-57 95 -39 21 -59 20 -98 -4z"/>
<path d="M2432 2079 c-16 -6 -16 -7 1 -14 9 -4 23 -5 31 -2 7 3 25 -1 40 -8
14 -8 26 -12 26 -9 0 3 10 -6 23 -19 18 -20 34 -26 85 -28 34 -2 62 0 62 4 0
4 -7 23 -14 42 -11 25 -22 35 -38 36 -70 5 -201 3 -216 -2z"/>
<path d="M2110 1825 l-74 -75 36 0 c31 0 43 7 82 51 25 28 46 45 46 37 0 -8
17 -31 38 -51 29 -28 46 -37 72 -37 l34 0 -74 75 c-41 41 -77 75 -80 75 -3 0
-39 -34 -80 -75z"/>
<path d="M2140 1765 c-27 -28 -42 -35 -72 -35 l-38 0 -1 -317 c0 -175 -3 -335
-6 -356 -5 -33 -1 -43 23 -68 15 -16 25 -32 21 -35 -4 -4 -16 5 -28 20 -15 19
-25 24 -33 17 -9 -8 -6 -30 15 -93 33 -99 34 -108 12 -108 -14 0 -14 -2 2 -20
10 -11 13 -20 7 -20 -19 0 -42 42 -33 58 8 15 -7 73 -32 130 -8 16 -8 28 -1
40 13 20 10 46 -12 104 -9 24 -17 66 -18 93 -1 28 -6 57 -11 65 -11 18 -13 25
-28 110 l-12 65 -6 -90 c-3 -49 -6 -82 -7 -72 -3 23 -14 22 -30 -3 -8 -13 -11
-38 -7 -68 4 -34 1 -62 -14 -101 -18 -46 -18 -56 -6 -73 14 -22 10 -46 -26
-125 -10 -24 -19 -47 -19 -52 0 -5 -7 -14 -15 -21 -8 -7 -15 -11 -15 -9 1 14
42 134 55 158 19 38 19 38 -10 43 -16 4 -30 -2 -43 -16 -16 -17 -20 -43 -25
-148 l-7 -128 28 -17 c15 -10 34 -26 42 -37 15 -17 18 -16 53 23 20 23 38 51
38 64 1 14 4 9 8 -13 7 -32 3 -39 -39 -85 -68 -73 -97 -125 -70 -125 6 0 10 8
10 18 1 9 39 57 87 107 l85 90 85 -89 c46 -48 87 -85 91 -82 3 4 -35 48 -86
99 l-91 91 -32 -29 -32 -30 6 25 c4 14 7 31 7 39 0 8 3 12 6 8 4 -3 19 0 34 8
26 14 28 13 23 -5 -3 -11 0 -20 5 -20 6 0 20 -10 32 -22 18 -20 20 -20 20 -3
0 17 1 17 13 3 8 -12 21 -15 40 -11 l27 5 0 174 c0 123 -3 174 -11 174 -7 0
-21 10 -33 23 -19 20 -20 26 -8 50 7 15 17 27 23 27 5 0 9 66 9 160 0 131 3
160 14 160 20 0 28 -62 25 -193 -3 -105 -2 -114 19 -137 13 -14 29 -32 37 -41
18 -19 20 -35 3 -21 -10 7 -21 4 -40 -13 -24 -21 -28 -32 -28 -76 l0 -53 35
34 c19 19 35 40 35 48 0 8 6 28 14 45 16 37 46 127 46 139 0 5 -4 6 -10 3 -16
-10 -13 13 22 143 29 108 35 122 53 120 13 -2 21 -12 23 -28 2 -14 8 -29 14
-35 8 -7 9 -4 4 8 -3 10 -6 81 -6 158 l0 139 -38 0 c-29 0 -48 8 -79 35 -23
19 -45 35 -50 35 -5 0 -24 -16 -43 -35z m-15 -146 c5 -33 3 -55 -4 -62 -8 -8
-11 5 -13 49 l-1 59 -7 -60 -7 -60 -1 61 c-1 33 1 64 4 67 13 13 22 -4 29 -54z
m88 44 c-10 -3 -13 -64 -13 -254 0 -159 -4 -249 -10 -249 -6 0 -10 92 -10 255
l0 255 23 -1 c12 0 16 -3 10 -6z m97 -48 c0 -30 -4 -55 -10 -55 -5 0 -10 25
-10 55 0 30 5 55 10 55 6 0 10 -25 10 -55z m-38 -66 c5 -3 3 -9 -6 -12 -13 -5
-16 0 -15 26 1 21 3 25 6 12 3 -11 10 -23 15 -26z m-190 -706 c10 -9 18 -20
18 -25 0 -11 -49 24 -50 35 0 12 12 8 32 -10z"/>
<path d="M766 1515 c-61 -59 -118 -105 -129 -105 -10 0 -62 -39 -114 -87 -97
-89 -98 -91 -77 -147 4 -11 1 -16 -11 -16 -12 0 -15 -5 -10 -17 4 -10 14 -38
22 -62 l16 -43 86 84 c47 46 139 133 205 193 l118 110 74 -77 73 -77 11 42 c6
23 17 63 24 89 l13 46 -86 86 c-48 47 -91 86 -96 86 -6 -1 -59 -48 -119 -105z
m118 61 c-9 -23 -173 -169 -217 -194 -23 -12 -72 -51 -111 -85 -98 -88 -110
-83 -17 7 45 45 86 76 98 76 12 0 66 43 133 105 63 58 115 105 116 105 2 0 1
-6 -2 -14z m-14 -138 c0 -4 -6 -5 -14 -2 -9 3 -34 -12 -60 -36 -25 -24 -46
-40 -46 -37 0 3 24 28 52 56 48 45 67 50 68 19z m-141 -100 c-2 -2 -24 -21
-49 -43 l-45 -40 44 47 c25 26 47 45 50 43 2 -3 2 -6 0 -7z m-134 -118 c-10
-11 -23 -20 -28 -20 -6 0 0 11 13 25 27 29 42 25 15 -5z"/>
<path d="M2104 1325 c0 -88 2 -123 3 -77 2 46 2 118 0 160 -1 42 -3 5 -3 -83z"/>
<path d="M2306 1439 c-3 -17 -6 -49 -6 -70 0 -22 -4 -39 -9 -39 -15 0 -25 -41
-23 -97 1 -28 -5 -67 -13 -87 -8 -19 -15 -47 -15 -61 0 -17 -19 -45 -60 -88
-52 -54 -60 -67 -60 -101 l0 -40 36 35 c20 18 50 63 67 99 20 42 32 59 34 48
4 -16 6 -16 20 -2 9 8 22 13 29 10 10 -4 14 4 15 27 0 18 3 26 6 20 6 -17 38
-16 52 1 8 10 7 23 -5 52 -9 21 -18 67 -19 101 -2 34 -9 72 -16 85 -7 13 -14
48 -17 78 -4 66 -7 71 -16 29z"/>
<path d="M1491 1377 c0 -33 -5 -56 -10 -52 -21 13 -30 -22 -34 -145 -2 -47
-10 -87 -21 -108 -12 -24 -15 -45 -10 -77 5 -35 1 -55 -20 -101 -30 -65 -30
-64 -14 -64 7 0 34 21 60 47 38 38 48 43 48 28 0 -16 2 -17 10 -5 8 12 13 11
33 -8 13 -12 31 -22 41 -22 16 0 18 5 11 38 -4 20 -9 60 -10 87 -2 28 -10 76
-18 107 -9 31 -13 66 -10 77 6 23 -15 93 -31 103 -7 5 -6 8 3 8 11 0 11 3 1
15 -7 8 -16 41 -20 73 l-7 57 -2 -58z"/>
<path d="M785 1322 c-44 -42 -116 -108 -160 -147 -69 -61 -76 -70 -56 -73 15
-2 27 -14 34 -31 6 -16 18 -33 28 -39 15 -10 19 -3 34 61 10 40 25 80 33 90
31 35 87 15 97 -35 12 -58 16 -68 31 -68 8 0 14 -4 14 -10 0 -5 -9 -10 -20
-10 -44 0 -44 -90 0 -110 8 -4 25 -12 38 -19 l22 -11 0 90 c0 57 4 90 11 90 6
0 8 -9 4 -22 -6 -19 -5 -21 6 -10 19 18 68 15 76 -5 5 -13 9 -9 19 18 17 46
17 59 0 59 -12 0 -12 7 0 47 8 25 14 51 14 57 0 11 -131 156 -140 156 -3 0
-41 -35 -85 -78z m95 14 c0 -8 -70 -74 -97 -91 -17 -11 -7 4 27 39 48 49 70
66 70 52z m39 -153 c13 -25 -5 -53 -34 -53 -15 0 -26 7 -30 20 -13 41 43 70
64 33z"/>
<path d="M871 1176 c-9 -10 -8 -16 4 -26 20 -16 38 -1 29 23 -8 21 -18 22 -33
3z"/>
<path d="M350 1325 c-1 -38 -5 -61 -7 -51 -8 31 -33 -50 -34 -109 -1 -27 -8
-67 -16 -88 -13 -32 -14 -45 -3 -77 11 -33 10 -47 -7 -103 -17 -56 -18 -68 -6
-90 11 -21 11 -35 1 -71 -7 -25 -9 -48 -6 -51 3 -3 21 -6 41 -7 33 -1 35 -4
43 -42 l8 -41 4 45 5 45 12 -50 13 -50 1 85 c1 77 3 88 27 113 20 22 25 35 20
55 -26 106 -27 124 -11 158 15 32 15 36 -6 76 -12 24 -21 59 -21 82 1 46 -17
108 -30 100 -4 -3 -8 16 -9 43 -1 26 -5 59 -9 73 -6 18 -9 6 -10 -45z"/>
<path d="M1070 1315 c-1 -52 -4 -73 -9 -60 -7 16 -11 11 -24 -33 -10 -32 -13
-62 -8 -75 9 -27 8 -33 -9 -72 -7 -16 -13 -45 -13 -62 0 -21 -5 -33 -14 -33
-7 0 -13 -5 -13 -11 0 -6 8 -8 18 -5 15 5 18 0 19 -31 1 -21 -3 -45 -8 -55
-17 -31 8 -29 35 3 25 30 26 30 26 7 0 -16 -20 -44 -60 -83 -81 -81 -76 -91 8
-17 l69 61 58 -59 c32 -33 61 -57 64 -54 3 2 -24 35 -60 72 -41 41 -64 73 -62
84 3 13 12 8 41 -23 20 -21 40 -39 45 -39 12 0 8 34 -9 65 -11 19 -16 51 -16
85 1 30 -3 75 -8 100 -5 25 -11 65 -13 89 -3 24 -10 47 -17 51 -6 4 -17 45
-25 91 l-13 84 -2 -80z"/>
<path d="M2631 1262 c-1 -35 -5 -61 -10 -58 -14 9 -39 -65 -46 -134 -3 -36 -7
-74 -9 -85 -2 -11 2 -23 8 -27 6 -4 -1 -8 -16 -8 -31 0 -33 6 -17 47 16 43 27
113 18 113 -5 0 -9 11 -9 25 0 25 -23 35 -35 15 -3 -5 -11 -10 -17 -10 -6 0
-4 8 5 18 30 33 15 72 -28 72 -42 0 -58 -36 -29 -65 14 -13 19 -14 25 -3 5 7
9 -24 9 -75 l0 -88 -28 20 c-16 11 -35 27 -42 36 -13 15 -44 21 -38 7 8 -20
88 -83 98 -77 5 3 10 -2 10 -11 0 -10 12 -31 27 -46 l27 -28 23 22 23 21 0
-35 c0 -23 6 -38 15 -42 22 -8 18 -30 -9 -54 -22 -18 -24 -27 -21 -74 2 -29 4
-75 5 -103 l0 -50 26 39 c18 26 29 34 34 26 5 -8 9 -4 14 13 5 20 11 23 31 20
33 -7 40 13 21 59 -13 31 -13 37 0 57 14 20 14 28 -5 88 -19 61 -20 68 -5 90
13 20 13 30 3 61 -7 20 -13 65 -14 100 -1 34 -7 68 -13 74 -7 7 -12 26 -13 43
0 16 -4 39 -9 50 -6 14 -9 1 -9 -43z m-101 -207 c-13 -14 -26 -23 -28 -20 -7
7 29 45 41 45 6 0 0 -11 -13 -25z"/>
<path d="M1361 1236 c-62 -63 -63 -63 -37 -70 30 -7 66 -59 66 -94 0 -32 -16
-60 -62 -108 -36 -38 -39 -45 -36 -88 l3 -48 34 24 c39 27 91 138 65 138 -10
0 -13 6 -10 18 3 10 12 42 20 72 8 30 18 64 22 74 6 16 4 18 -9 13 -21 -8 -21
-2 2 72 10 34 16 61 12 61 -4 0 -35 -29 -70 -64z"/>
<path d="M1682 1275 c-17 -8 -38 -27 -46 -44 -30 -57 -16 -114 42 -173 40 -42
36 -49 -9 -17 -76 54 -78 -51 -3 -110 51 -40 54 -33 54 111 0 129 -1 132 -27
160 -14 15 -24 31 -20 34 4 4 16 -5 28 -20 l22 -28 23 29 c12 15 25 25 29 22
3 -4 -6 -20 -20 -37 -23 -27 -25 -38 -25 -122 l0 -92 29 24 c19 15 35 45 50
89 25 78 25 80 6 73 -11 -5 -13 1 -9 28 5 25 1 38 -14 51 -31 28 -74 36 -110
22z"/>
<path d="M717 1177 c-8 -6 -23 -39 -31 -73 -9 -33 -22 -79 -30 -101 l-14 -41
44 -43 c24 -24 44 -48 44 -53 0 -6 -20 10 -45 34 -47 46 -68 49 -40 6 9 -14
14 -29 11 -34 -3 -6 19 -31 48 -56 52 -44 57 -46 116 -46 45 0 61 3 58 13 -3
6 -14 13 -26 15 -28 4 -72 57 -72 87 0 13 6 30 14 37 11 12 11 18 -5 37 -22
27 -25 84 -5 100 11 10 12 20 2 58 -14 54 -43 80 -69 60z m3 -162 c13 -14 21
-27 18 -30 -2 -3 -17 9 -33 25 -16 17 -24 30 -19 30 6 0 21 -11 34 -25z"/>
<path d="M1229 1131 c-42 -42 -41 -106 2 -156 17 -19 35 -35 40 -35 5 0 9 23
9 50 0 43 -4 55 -27 74 -17 15 -23 27 -18 36 6 9 12 5 24 -16 l16 -29 3 33 c2
17 7 32 11 32 4 0 6 -15 4 -32 l-4 -33 20 25 c10 13 17 28 15 32 -3 4 0 8 5 8
19 0 12 -30 -14 -56 -19 -19 -25 -35 -25 -71 l0 -47 36 35 c47 45 58 73 43
116 -11 35 -51 63 -89 63 -12 0 -35 -13 -51 -29z"/>
<path d="M2075 1139 c-10 -30 28 -68 53 -53 10 7 17 24 17 40 0 25 -4 29 -32
32 -25 3 -33 -1 -38 -19z"/>
<path d="M533 1083 c-17 -6 -16 -38 1 -52 11 -9 15 -7 21 11 l7 23 7 -25 7
-25 12 22 c19 34 -16 62 -55 46z"/>
<path d="M912 1054 c-18 -12 -22 -25 -22 -65 0 -27 3 -49 8 -49 14 0 82 69 82
84 0 15 -26 46 -38 46 -4 0 -18 -7 -30 -16z"/>
<path d="M2237 948 c-65 -61 -116 -113 -113 -116 3 -2 55 41 115 97 60 55 113
101 117 101 5 -1 59 -48 119 -105 61 -57 111 -100 113 -95 2 5 -18 28 -45 52
-26 24 -80 73 -118 110 l-71 67 -117 -111z"/>
<path d="M479 1033 c-12 -14 -12 -15 0 -9 10 6 12 4 7 -11 -3 -10 3 -36 14
-58 25 -48 25 -53 2 -32 -14 13 -21 14 -30 5 -20 -20 -13 -55 15 -77 24 -20
27 -20 45 -5 26 24 26 144 0 167 -10 10 -24 17 -31 17 -7 0 -9 5 -6 10 10 16
-1 11 -16 -7z"/>
<path d="M586 1011 c-13 -15 -17 -34 -15 -82 l3 -62 -46 -36 c-89 -72 -110
-92 -105 -98 4 -3 45 27 92 67 l85 72 67 -59 c89 -77 103 -87 103 -76 0 5 -31
35 -70 66 -50 41 -67 62 -63 74 4 9 0 21 -10 27 -13 10 -14 19 -4 52 17 65 -3
93 -37 55z m34 -126 c8 -9 9 -15 2 -15 -6 0 -14 5 -17 10 -4 6 -11 8 -16 5 -5
-4 -9 -1 -9 4 0 16 26 13 40 -4z"/>
<path d="M2262 931 l-93 -86 1 -257 0 -258 93 0 93 0 -4 68 c-3 81 11 116 52
120 50 6 66 -20 66 -110 l0 -78 30 0 30 0 0 263 0 262 -88 81 -88 81 -92 -86z
m78 -146 l0 -55 -55 0 -55 0 0 55 0 55 55 0 55 0 0 -55z m130 0 l0 -55 -50 0
-50 0 0 55 0 55 50 0 50 0 0 -55z m-130 -141 l0 -55 -52 3 -53 3 -3 53 -3 52
55 0 56 0 0 -56z m130 1 l0 -55 -50 0 -50 0 0 55 0 55 50 0 50 0 0 -55z m-160
-185 l0 -60 -40 0 -40 0 0 60 0 60 40 0 40 0 0 -60z"/>
<path d="M2263 823 c-7 -2 -13 -19 -13 -36 l0 -32 24 30 c30 37 25 53 -11 38z"/>
<path d="M2310 789 c0 -17 4 -28 10 -24 6 3 10 17 10 31 0 13 -4 24 -10 24 -5
0 -10 -14 -10 -31z"/>
<path d="M2268 743 c12 -2 32 -2 45 0 12 2 2 4 -23 4 -25 0 -35 -2 -22 -4z"/>
<path d="M2447 823 c-11 -10 -8 -51 3 -58 6 -4 10 8 10 29 0 37 -2 41 -13 29z"/>
<path d="M2380 790 c0 -38 10 -38 32 0 17 30 17 30 -7 30 -21 0 -25 -5 -25
-30z"/>
<path d="M2398 743 c12 -2 32 -2 45 0 12 2 2 4 -23 4 -25 0 -35 -2 -22 -4z"/>
<path d="M2250 658 l0 -33 20 25 c25 32 25 40 0 40 -16 0 -20 -7 -20 -32z"/>
<path d="M2310 661 c0 -17 5 -31 10 -31 6 0 10 11 10 24 0 14 -4 28 -10 31 -6
4 -10 -7 -10 -24z"/>
<path d="M2268 613 c12 -2 32 -2 45 0 12 2 2 4 -23 4 -25 0 -35 -2 -22 -4z"/>
<path d="M2387 683 c-10 -9 -9 -53 1 -53 4 0 16 14 25 30 18 29 18 30 -1 30
-10 0 -22 -3 -25 -7z"/>
<path d="M2447 683 c-11 -10 -8 -53 3 -53 6 0 10 14 10 30 0 31 -2 35 -13 23z"/>
<path d="M2398 613 c12 -2 32 -2 45 0 12 2 2 4 -23 4 -25 0 -35 -2 -22 -4z"/>
<path d="M2250 460 c0 -37 2 -41 23 -38 18 2 22 9 22 38 0 29 -4 36 -22 38
-21 3 -23 -1 -23 -38z"/>
<path d="M1160 975 c0 -9 5 -15 11 -13 6 2 11 8 11 13 0 5 -5 11 -11 13 -6 2
-11 -4 -11 -13z"/>
<path d="M1606 933 c16 -42 29 -59 44 -61 30 -5 70 6 70 19 0 6 -8 8 -19 4
-13 -4 -29 6 -55 35 -20 22 -36 45 -36 50 0 6 -6 10 -14 10 -11 0 -9 -13 10
-57z"/>
<path d="M430 973 c0 -5 7 -16 14 -26 12 -15 15 -15 26 -3 6 9 9 20 5 26 -7
11 -45 14 -45 3z"/>
<path d="M1187 963 c-12 -11 -8 -44 9 -73 15 -24 61 -60 78 -60 3 0 6 20 6 45
0 39 -3 46 -30 60 -16 9 -30 20 -30 25 0 11 -23 13 -33 3z"/>
<path d="M918 937 c-22 -19 -26 -30 -26 -74 0 -29 3 -53 7 -53 3 1 25 18 49
40 37 33 43 44 40 72 -4 41 -32 47 -70 15z"/>
<path d="M812 918 c-19 -19 -14 -57 13 -83 38 -39 55 -33 55 19 0 35 -5 48
-22 60 -27 19 -31 19 -46 4z"/>
<path d="M1375 760 c-66 -66 -115 -120 -110 -121 33 -3 451 3 454 7 2 2 -3 12
-12 22 -13 14 -17 37 -17 90 0 70 -1 72 -25 72 -25 0 -26 0 -19 -65 5 -46 3
-65 -5 -65 -6 0 -11 12 -11 26 0 18 -18 45 -62 90 -34 35 -64 64 -67 64 -4 0
-60 -54 -126 -120z m153 -16 c2 -11 -3 -26 -11 -33 -29 -24 -70 17 -46 46 17
20 53 12 57 -13z m80 -91 c-60 -2 -156 -2 -215 0 -60 1 -11 3 107 3 118 0 167
-2 108 -3z"/>
<path d="M1487 754 c-14 -14 -7 -35 11 -32 9 2 17 10 17 17 0 16 -18 25 -28
15z"/>
<path d="M1602 859 c5 -15 106 -21 115 -6 2 4 -16 7 -41 7 -24 0 -52 3 -62 7
-12 4 -15 2 -12 -8z"/>
<path d="M518 788 l-77 -63 0 -197 c-1 -182 0 -198 17 -198 15 0 17 11 14 110
l-3 111 57 -3 58 -3 -3 -107 -3 -108 86 0 86 0 0 199 0 198 -74 62 c-41 33
-76 61 -78 61 -2 0 -38 -28 -80 -62z m66 -128 l-1 -55 -54 0 -54 0 -3 49 c-4
58 5 67 68 63 l45 -2 -1 -55z m134 -3 l3 -58 -53 3 -53 3 -3 43 c-4 56 9 71
61 69 l42 -2 3 -58z m2 -162 l0 -55 -49 0 -48 0 -7 39 c-9 61 -1 71 55 71 l49
0 0 -55z"/>
<path d="M490 660 c0 -40 0 -40 40 -40 40 0 40 0 40 40 0 40 0 40 -40 40 -40
0 -40 0 -40 -40z m60 16 c0 -7 -9 -16 -20 -19 -23 -6 -26 3 -8 21 16 16 28 15
28 -2z m-2 -43 c-10 -2 -26 -2 -35 0 -10 3 -2 5 17 5 19 0 27 -2 18 -5z"/>
<path d="M630 660 l0 -40 43 1 42 2 -37 6 c-36 6 -37 7 -25 30 16 32 37 39 37
12 0 -14 -5 -19 -15 -15 -8 4 -15 1 -15 -5 0 -6 11 -11 25 -11 21 0 25 5 25
30 0 28 -2 30 -40 30 -40 0 -40 0 -40 -40z"/>
<path d="M630 501 c0 -38 1 -39 40 -43 l40 -4 0 43 0 43 -40 0 c-40 0 -40 0
-40 -39z m62 2 c4 -13 -1 -18 -19 -18 -12 0 -23 1 -23 2 0 1 3 8 6 17 8 21 31
20 36 -1z"/>
<path d="M927 817 c-20 -18 -37 -35 -37 -39 0 -5 18 -8 40 -8 37 0 55 13 29
22 -7 2 -7 12 0 31 6 15 9 27 8 27 -1 -1 -19 -15 -40 -33z"/>
<path d="M1210 819 c0 -16 -5 -29 -12 -29 -6 0 -3 -9 7 -20 10 -11 31 -20 47
-20 25 0 28 3 28 33 -1 27 -6 35 -35 48 l-35 16 0 -28z"/>
<path d="M1318 832 c-21 -13 -28 -25 -28 -49 0 -30 3 -33 28 -33 16 0 37 9 47
20 18 19 17 20 -4 20 -20 0 -22 4 -16 30 4 17 5 30 3 29 -2 0 -15 -8 -30 -17z"/>
<path d="M1017 772 l-57 -58 0 -192 0 -192 125 0 125 0 0 189 0 190 -61 58
c-33 32 -64 59 -68 61 -3 1 -32 -24 -64 -56z m83 -7 c15 -18 6 -45 -15 -45
-18 0 -30 24 -21 45 7 19 20 19 36 0z m24 -71 c10 -9 16 -33 16 -60 l0 -44
-55 0 -55 0 0 44 c0 50 19 76 55 76 13 0 31 -7 39 -16z m46 -189 l0 -55 -86 0
c-47 0 -83 4 -80 9 3 5 36 9 72 10 37 0 69 3 72 6 3 3 -29 5 -71 5 l-77 0 0
33 c0 19 3 37 7 40 3 4 42 7 85 7 l78 0 0 -55z m-91 -98 c6 -8 8 -17 4 -20
-11 -12 -23 -8 -23 8 0 12 -4 13 -19 5 -27 -14 -41 -13 -41 5 0 19 63 21 79 2z"/>
<path d="M1068 692 c-11 -2 -18 -13 -18 -28 0 -19 5 -24 26 -24 21 0 25 4 21
20 -3 11 -1 20 4 20 5 0 9 -9 9 -20 0 -11 5 -20 11 -20 6 0 8 7 5 16 -3 9 -6
19 -6 24 0 10 -30 17 -52 12z"/>
<path d="M1050 613 c0 -8 13 -13 35 -13 22 0 35 5 35 13 0 9 -12 13 -35 13
-21 -1 -35 -6 -35 -13z"/>
<path d="M1024 535 c-8 -19 2 -45 16 -45 5 0 10 14 10 30 0 31 -16 41 -26 15z"/>
<path d="M1070 515 c0 -18 5 -25 20 -25 15 0 20 7 20 25 0 18 -5 25 -20 25
-15 0 -20 -7 -20 -25z"/>
<path d="M1120 515 c0 -16 6 -25 15 -25 9 0 15 9 15 25 0 16 -6 25 -15 25 -9
0 -15 -9 -15 -25z"/>
<path d="M2138 823 c-14 -3 -18 -15 -18 -54 0 -42 3 -49 20 -49 18 0 20 7 20
55 0 30 -1 54 -2 54 -2 -1 -11 -3 -20 -6z"/>
<path d="M875 740 c-3 -5 -2 -17 3 -26 5 -9 7 -26 4 -38 -5 -21 -5 -21 17 1
25 26 27 58 5 67 -21 8 -22 8 -29 -4z"/>
<path d="M829 726 c-6 -23 -3 -116 3 -116 24 0 34 110 11 117 -7 3 -14 2 -14
-1z"/>
<path d="M1240 715 c0 -20 12 -25 26 -10 18 18 18 21 -6 21 -11 0 -20 -5 -20
-11z"/>
<path d="M1887 640 l-67 -69 0 -121 0 -120 140 0 140 0 0 123 0 123 -68 67
c-37 37 -70 67 -73 67 -3 0 -35 -31 -72 -70z m97 -9 c4 -5 3 -17 0 -26 -10
-24 -48 -15 -52 13 -3 18 1 22 22 22 14 0 27 -4 30 -9z m4 -76 c-23 -20 -25
-29 -23 -78 2 -31 -1 -59 -6 -62 -5 -4 -9 5 -9 19 0 21 -5 26 -25 26 -20 0
-25 -5 -25 -25 0 -14 -4 -25 -9 -25 -8 0 -9 48 -2 118 1 7 15 12 36 12 27 0
39 7 57 31 13 18 24 25 27 18 2 -7 -8 -22 -21 -34z m70 -27 c7 -7 11 -34 10
-62 l-1 -51 -6 49 c-7 60 -30 79 -60 52 -12 -11 -21 -15 -21 -10 0 17 23 34
45 34 12 0 26 -5 33 -12z m-10 -60 c-7 -19 -38 -22 -38 -4 0 10 9 16 21 16 12
0 19 -5 17 -12z m-184 -73 c-4 -8 -10 -15 -15 -15 -5 0 -9 7 -9 15 0 8 7 15
15 15 9 0 12 -6 9 -15z"/>
<path d="M1900 500 c0 -25 4 -30 25 -30 27 0 35 26 13 48 -21 21 -38 13 -38
-18z"/>
<path d="M2086 683 c-7 -18 17 -43 41 -43 16 0 17 32 1 48 -17 17 -35 15 -42
-5z"/>
<path d="M780 657 c0 -8 7 -21 16 -28 14 -11 15 -10 12 11 -3 26 -28 41 -28
17z"/>
<path d="M1737 663 c-10 -9 -8 -36 3 -53 14 -21 29 3 22 36 -4 24 -13 30 -25
17z"/>
<path d="M256 629 c-15 -12 -26 -30 -26 -45 0 -13 -4 -24 -10 -24 -5 0 -17
-11 -25 -24 -23 -34 -10 -103 26 -138 39 -40 55 -36 58 13 1 31 -5 51 -25 80
-15 22 -23 43 -19 47 4 4 10 2 12 -4 2 -6 10 -20 18 -30 13 -18 14 -17 15 14
0 17 5 32 11 32 7 0 10 -15 7 -40 -4 -45 -2 -47 30 -24 12 8 22 11 22 6 0 -5
-11 -17 -24 -25 -25 -17 -41 -67 -21 -67 6 0 20 9 30 20 10 11 23 20 29 20 11
-1 -28 -37 -58 -55 -14 -8 -15 -15 -8 -35 l10 -25 10 25 c5 14 24 38 41 54 48
46 55 137 11 151 -13 4 -20 15 -20 31 0 26 -32 64 -54 64 -7 0 -25 -9 -40 -21z
m-8 -210 c13 -16 20 -29 16 -29 -11 0 -54 42 -54 52 0 16 15 7 38 -23z"/>
<path d="M907 643 c-8 -13 -5 -63 3 -63 14 0 32 29 28 46 -3 19 -23 30 -31 17z"/>
<path d="M2642 627 c-12 -13 -22 -29 -22 -36 0 -8 -11 -24 -25 -37 -45 -41
-33 -103 32 -174 13 -14 23 -30 23 -37 0 -7 7 -13 15 -13 28 0 18 48 -14 65
-17 8 -37 25 -45 37 -27 39 -17 41 18 4 18 -20 38 -36 45 -36 19 0 11 53 -14
95 -26 42 -30 55 -17 55 5 0 16 -15 25 -32 15 -32 16 -32 16 -7 1 28 36 67 49
55 4 -5 -3 -15 -15 -23 -15 -10 -23 -26 -23 -44 0 -35 6 -36 37 -7 13 12 26
18 30 14 4 -3 -2 -13 -13 -20 -53 -39 -56 -43 -52 -70 l3 -28 27 21 c14 12 29
21 33 21 13 0 -8 -22 -39 -41 -36 -22 -18 -26 23 -5 52 27 70 127 31 166 -11
11 -20 27 -20 35 0 22 -45 65 -68 65 -10 0 -28 -10 -40 -23z m24 -44 c-13 -24
-15 -25 -16 -7 0 11 5 25 12 32 19 19 21 6 4 -25z m-33 -106 c-3 -5 -9 -3 -14
4 -4 7 -5 17 -2 22 3 5 9 3 14 -4 4 -7 5 -17 2 -22z"/>
<path d="M867 617 c-11 -29 -9 -43 4 -30 6 6 9 19 7 29 -3 18 -4 18 -11 1z"/>
<path d="M1245 608 c-3 -7 -4 -67 -3 -133 3 -112 4 -120 23 -120 19 0 20 8 23
119 2 78 -1 123 -9 132 -14 17 -28 18 -34 2z"/>
<path d="M1320 475 l0 -145 100 0 99 0 3 63 3 62 53 0 52 0 0 -62 c0 -61 1
-63 25 -63 l25 0 0 145 0 145 -180 0 -180 0 0 -145z m168 63 l3 -58 -61 0 -60
0 0 60 0 61 58 -3 57 -3 3 -57z m142 2 l0 -60 -55 0 -55 0 0 60 0 60 55 0 55
0 0 -60z"/>
<path d="M1408 583 c-26 -4 -28 -8 -28 -49 l0 -44 45 0 45 0 0 50 c0 54 2 53
-62 43z m48 -29 c-3 -9 -6 -21 -6 -27 0 -8 -3 -7 -9 2 -7 10 -12 8 -26 -10
l-17 -24 6 25 c3 14 6 31 6 38 0 6 12 12 26 12 20 0 25 -4 20 -16z"/>
<path d="M1548 583 c-14 -3 -18 -15 -18 -49 l0 -44 45 0 45 0 0 50 c0 48 -1
50 -27 49 -16 -1 -36 -3 -45 -6z m51 -45 c-1 -18 -3 -25 -6 -15 -2 9 -8 17
-13 17 -5 0 -14 -8 -19 -17 -9 -15 -10 -12 -11 15 0 28 3 32 25 32 22 0 25 -4
24 -32z"/>
<path d="M780 578 c0 -7 7 -22 15 -32 12 -16 15 -17 15 -4 0 24 -11 48 -21 48
-5 0 -9 -6 -9 -12z"/>
<path d="M831 572 c-14 -25 -14 -42 -1 -42 16 0 33 41 22 52 -7 7 -14 3 -21
-10z"/>
<path d="M1740 574 c0 -9 5 -14 12 -12 18 6 21 28 4 28 -9 0 -16 -7 -16 -16z"/>
<path d="M870 565 c0 -8 5 -15 10 -15 6 0 10 7 10 15 0 8 -4 15 -10 15 -5 0
-10 -7 -10 -15z"/>
<path d="M912 568 c-14 -14 -16 -48 -2 -48 5 0 14 9 21 21 13 25 -1 45 -19 27z"/>
<path d="M1700 561 c0 -20 25 -47 33 -34 7 12 -11 53 -23 53 -5 0 -10 -8 -10
-19z"/>
<path d="M1749 538 c-5 -84 -5 -120 3 -124 4 -3 8 27 8 65 0 39 -2 71 -5 71
-3 0 -5 -6 -6 -12z"/>
<path d="M490 433 l0 -103 40 0 40 0 0 105 0 106 -40 -3 -40 -2 0 -103z m50
-8 c0 -25 -4 -45 -10 -45 -5 0 -10 20 -10 45 0 25 5 45 10 45 6 0 10 -20 10
-45z"/>
<path d="M860 530 c0 -5 -9 -19 -20 -30 -20 -20 -27 -50 -11 -50 5 0 16 10 25
23 l17 22 -6 -27 c-6 -29 4 -88 14 -88 6 0 7 41 2 138 -1 21 -21 33 -21 12z"/>
<path d="M780 496 c0 -7 7 -19 15 -26 16 -13 20 -3 9 24 -8 20 -24 21 -24 2z"/>
<path d="M912 488 c-14 -14 -16 -38 -4 -38 12 0 32 23 32 37 0 16 -12 17 -28
1z"/>
<path d="M1700 486 c0 -7 6 -19 14 -25 19 -16 32 5 16 24 -16 19 -30 19 -30 1z"/>
<path d="M1777 493 c-10 -10 -8 -43 2 -43 9 0 21 24 21 41 0 11 -14 12 -23 2z"/>
<path d="M2382 488 c-7 -7 -12 -42 -12 -85 0 -71 1 -73 25 -73 24 0 25 2 25
74 0 77 -14 108 -38 84z"/>
<path d="M1540 385 l0 -55 40 0 40 0 0 55 0 55 -40 0 -40 0 0 -55z"/>
<path d="M780 417 c0 -8 7 -21 16 -28 14 -11 15 -10 12 11 -3 26 -28 41 -28
17z"/>
<path d="M1705 419 c-4 -6 0 -18 9 -27 15 -15 16 -15 16 5 0 25 -15 38 -25 22z"/>
<path d="M1782 418 c-16 -16 -15 -28 3 -28 8 0 15 9 15 20 0 23 -2 24 -18 8z"/>
<path d="M830 404 c0 -9 5 -14 12 -12 18 6 21 28 4 28 -9 0 -16 -7 -16 -16z"/>
<path d="M907 398 c-4 -12 -5 -24 -3 -26 5 -5 36 28 36 39 0 19 -28 8 -33 -13z"/>
<path d="M362 387 c-27 -28 -29 -49 -4 -40 25 9 62 45 56 54 -9 15 -30 10 -52
-14z"/>
<path d="M2550 402 c0 -15 46 -52 64 -52 16 0 15 3 -4 30 -19 27 -60 42 -60
22z"/>
<path d="M1751 383 c0 -13 -5 -23 -11 -23 -16 0 -12 -20 6 -27 9 -3 23 2 32
12 16 17 16 17 0 12 -13 -4 -18 1 -21 21 -3 22 -4 23 -6 5z"/>
<path d="M850 372 c-19 -6 -30 -23 -23 -35 2 -4 12 -2 21 5 12 10 16 10 19 1
6 -17 23 -16 23 1 0 19 -22 34 -40 28z"/>
<path d="M780 356 c0 -9 7 -16 16 -16 17 0 14 22 -4 28 -7 2 -12 -3 -12 -12z"/>
<path d="M911 356 c-8 -9 -11 -19 -7 -23 9 -9 29 13 24 27 -2 8 -8 7 -17 -4z"/>
<path d="M208 313 c-27 -2 -48 -8 -48 -14 0 -5 503 -9 1335 -9 766 0 1335 4
1335 9 0 5 -10 11 -21 14 -24 6 -2525 6 -2601 0z"/>
<path d="M833 2553 c-24 -9 -14 -30 11 -26 24 5 57 -18 69 -48 4 -11 9 -9 21
6 33 44 39 47 67 41 21 -4 29 -2 29 8 0 32 -84 24 -97 -9 -5 -14 -8 -14 -27 3
-24 22 -55 33 -73 25z"/>
<path d="M1410 2520 c-91 -43 -133 -108 -134 -207 0 -205 255 -295 392 -139
73 83 67 219 -14 300 -64 64 -165 83 -244 46z m201 -34 c84 -69 112 -178 68
-261 -29 -54 -94 -105 -134 -104 -14 0 -11 4 10 11 111 39 164 159 116 264
-23 51 -71 89 -133 104 -60 15 -130 -6 -176 -53 -99 -103 -55 -272 84 -318 28
-9 28 -9 -5 -4 -49 7 -95 47 -125 107 -32 65 -33 108 -2 175 20 41 35 58 78
83 47 28 60 31 119 28 55 -3 71 -8 100 -32z m-101 -75 c0 -37 5 -72 11 -78 16
-16 1 -53 -22 -53 -25 0 -36 27 -21 51 7 10 12 51 12 89 0 45 4 69 10 65 6 -3
10 -37 10 -74z m-122 0 c3 -8 -1 -12 -9 -9 -7 2 -15 10 -17 17 -3 8 1 12 9 9
7 -2 15 -10 17 -17z m287 -91 c3 -5 -3 -10 -15 -10 -12 0 -18 5 -15 10 3 6 10
10 15 10 5 0 12 -4 15 -10z m-285 -99 c0 -12 -20 -25 -27 -18 -7 7 6 27 18 27
5 0 9 -4 9 -9z m120 -66 c0 -8 -4 -15 -10 -15 -5 0 -10 7 -10 15 0 8 5 15 10
15 6 0 10 -7 10 -15z"/>
</g>
</svg>
