<?xml version="1.0" standalone="no"?>
<!DOCTYPE svg PUBLIC "-//W3C//DTD SVG 20010904//EN"
 "http://www.w3.org/TR/2001/REC-SVG-20010904/DTD/svg10.dtd">
<svg version="1.0" xmlns="http://www.w3.org/2000/svg"
 width="300.000000pt" height="300.000000pt" viewBox="0 0 300.000000 300.000000"
 preserveAspectRatio="xMidYMid meet">
<metadata>
Created by potrace 1.10, written by Peter Selinger 2001-2011
</metadata>
<g transform="translate(0.000000,300.000000) scale(0.100000,-0.100000)"
fill="#000000" stroke="none">
<path d="M1420 2844 c-335 -26 -624 -156 -856 -388 -85 -85 -204 -234 -204
-255 0 -3 106 -5 237 -3 185 2 238 0 245 -10 8 -10 9 -10 6 2 -3 8 -15 17 -29
21 -13 4 -19 8 -14 9 6 0 30 3 55 6 25 3 51 12 59 20 13 12 12 16 -4 34 -10
11 -28 20 -39 20 -28 0 -38 8 -65 53 -25 40 -66 67 -103 67 -29 0 -99 -35
-111 -55 -4 -8 -15 -15 -23 -15 -20 0 -101 -58 -109 -78 -7 -18 12 -42 34 -42
14 0 14 -2 1 -10 -16 -10 -90 -11 -90 -1 0 10 38 69 67 103 70 85 217 219 299
275 376 254 855 292 1274 101 66 -31 280 -162 280 -173 0 -2 -39 -16 -86 -30
-47 -14 -98 -31 -112 -36 l-25 -10 39 -40 38 -39 -39 -39 c-22 -21 -188 -180
-370 -353 -181 -174 -396 -379 -476 -457 l-147 -140 -132 135 -131 135 -67
-64 c-146 -139 -181 -168 -196 -165 -8 2 -56 -34 -105 -79 -49 -46 -92 -83
-94 -83 -3 0 -17 38 -31 85 -17 54 -32 85 -41 85 -9 0 -25 -35 -45 -102 -17
-57 -35 -116 -41 -132 -12 -37 -12 -36 6 -36 13 0 14 -4 4 -21 -6 -12 -22 -53
-35 -91 l-24 -70 30 6 c30 6 38 -2 21 -20 -5 -5 -20 -45 -34 -89 l-25 -80 27
-3 27 -3 -23 -47 c-12 -26 -26 -75 -29 -109 -5 -42 -13 -68 -25 -79 -22 -20
-25 -82 -8 -132 12 -34 47 -62 79 -62 11 0 20 -7 20 -15 0 -12 -14 -15 -65
-15 l-65 0 0 -30 0 -30 1348 2 1347 3 0 25 c0 24 -2 25 -77 28 -60 2 -78 6
-78 17 0 9 9 15 23 15 78 0 128 132 73 197 -12 15 -21 34 -19 40 7 20 -16 117
-37 156 l-20 37 24 0 25 0 -15 53 c-9 28 -22 65 -30 81 -18 37 -18 36 10 36
l24 0 -24 78 c-27 86 -28 96 -14 87 15 -9 13 1 -19 114 -44 157 -58 158 -100
7 -23 -82 -41 -104 -49 -60 -6 29 -43 64 -67 64 -24 0 -55 -29 -55 -51 0 -8
-6 -21 -12 -28 -11 -11 -10 -13 3 -8 31 11 59 -33 59 -93 l0 -54 -21 21 c-29
29 -82 193 -63 193 8 0 14 1 14 3 0 1 -7 27 -15 57 -11 40 -15 111 -15 255 l0
200 -90 90 -90 90 -85 -85 -85 -85 -1 -330 c-1 -181 -4 -341 -8 -354 -5 -21
-9 -16 -25 34 -13 42 -15 60 -6 65 11 7 5 33 -56 248 -22 79 -37 67 -69 -55
-16 -60 -30 -110 -31 -112 -2 -2 -17 8 -34 23 -76 63 -180 4 -180 -103 0 -22
5 -52 12 -66 10 -22 9 -28 -3 -36 -21 -13 -29 -11 -29 9 -1 9 -7 34 -14 55
-12 32 -12 37 1 37 9 0 12 7 9 18 -2 9 -16 62 -31 117 -14 55 -31 113 -37 128
-17 43 -40 30 -55 -33 -13 -48 -25 -66 -101 -142 -48 -49 -92 -88 -99 -88 -22
0 -72 -51 -78 -80 -4 -17 -1 -46 5 -66 7 -19 10 -37 7 -40 -2 -2 -15 31 -29
73 -17 56 -21 79 -13 83 11 5 6 26 -61 269 -6 20 -2 18 27 -13 l34 -38 231
224 c127 123 327 315 445 427 118 113 251 240 296 284 l82 78 -34 31 c-19 16
-35 33 -35 38 0 4 76 30 169 58 161 50 208 61 186 44 -5 -4 -10 -16 -11 -27
-1 -11 -16 -91 -35 -177 l-34 -157 -32 31 -32 31 -403 -398 c-381 -376 -428
-425 -412 -425 3 0 186 178 405 395 220 217 404 395 410 395 6 0 20 -11 31
-25 11 -14 25 -25 32 -25 7 0 21 41 36 108 13 59 25 110 27 114 4 8 119 -156
147 -210 13 -25 14 -33 4 -37 -7 -3 -71 -6 -143 -8 l-130 -3 157 -2 c91 -1
159 -6 163 -12 4 -7 -50 -10 -155 -10 -174 0 -166 2 -231 -64 -30 -31 -47 -39
-80 -42 -67 -5 -58 -14 14 -14 54 0 67 3 67 15 0 9 11 27 25 40 32 33 77 33
103 1 13 -17 22 -22 29 -15 19 19 77 6 88 -18 9 -21 16 -23 87 -23 63 0 78 -3
78 -15 0 -14 -34 -15 -279 -13 -154 2 -277 0 -275 -3 13 -21 527 -28 551 -7
10 8 17 7 28 -8 17 -23 30 -82 20 -92 -4 -4 -96 -7 -206 -8 -109 0 -201 -3
-205 -7 -4 -4 94 -7 218 -7 l225 0 7 -67 c15 -164 17 -251 6 -258 -9 -6 -9
-10 1 -16 8 -5 17 -9 22 -9 14 0 7 180 -13 292 -38 221 -131 426 -272 598
l-45 56 18 74 c9 41 15 77 13 79 -3 3 -38 -5 -79 -17 l-75 -22 -53 43 c-106
86 -275 172 -426 216 -134 40 -338 64 -461 55z m-669 -460 c29 -15 62 -70 57
-95 -2 -7 16 -12 51 -13 33 0 56 -6 58 -13 4 -10 -44 -13 -216 -13 -190 0
-221 2 -221 15 0 9 9 15 24 15 16 0 26 7 29 21 5 18 12 21 41 17 30 -3 36 -1
41 19 6 25 59 63 88 63 10 0 32 -7 48 -16z m1897 -303 c16 -1 27 -11 38 -36 7
-19 14 -38 14 -42 0 -4 -28 -6 -62 -4 -51 2 -67 8 -85 28 -13 13 -23 22 -23
19 0 -3 -12 1 -26 9 -15 7 -33 11 -40 8 -8 -3 -22 -2 -31 2 -17 7 -17 8 -1 14
15 5 146 7 216 2z m-378 -256 l74 -75 -34 0 c-26 0 -43 9 -72 37 -21 20 -38
43 -38 51 0 8 -21 -9 -46 -37 -39 -44 -51 -51 -82 -51 l-36 0 74 75 c41 41 77
75 80 75 3 0 39 -34 80 -75z m-37 -60 c31 -27 50 -35 79 -35 l38 0 0 -139 c0
-77 3 -148 6 -158 5 -12 4 -15 -4 -8 -6 6 -12 21 -14 35 -2 16 -10 26 -23 28
-18 2 -24 -12 -53 -120 -35 -130 -38 -153 -22 -143 6 3 10 2 10 -3 0 -12 -30
-102 -46 -139 -8 -17 -14 -37 -14 -45 0 -8 -16 -29 -35 -48 l-35 -34 0 53 c0
44 4 55 28 76 19 17 30 20 40 13 17 -14 15 2 -3 21 -8 9 -24 27 -37 41 -21 23
-22 32 -19 137 3 131 -5 193 -25 193 -11 0 -14 -29 -14 -160 0 -94 -4 -160 -9
-160 -6 0 -16 -12 -23 -27 -12 -24 -11 -30 8 -50 12 -13 26 -23 33 -23 8 0 11
-51 11 -174 l0 -174 -27 -5 c-19 -4 -32 -1 -40 11 -12 14 -13 14 -13 -3 0 -17
-2 -17 -20 3 -12 12 -26 22 -32 22 -5 0 -8 9 -5 20 5 18 3 19 -23 5 -15 -8
-30 -11 -34 -8 -3 4 -6 0 -6 -8 0 -8 -3 -25 -7 -39 l-6 -25 32 30 32 29 91
-91 c51 -51 89 -95 86 -99 -4 -3 -45 34 -91 82 l-85 89 -85 -90 c-48 -50 -86
-98 -87 -107 0 -10 -4 -18 -10 -18 -27 0 2 52 70 125 42 46 46 53 39 85 -4 22
-7 27 -8 13 0 -13 -18 -41 -38 -64 -35 -39 -38 -40 -53 -23 -8 11 -27 27 -42
37 l-28 17 7 128 c5 105 9 131 25 148 13 14 27 20 43 16 29 -5 29 -5 10 -43
-13 -24 -54 -144 -55 -158 0 -2 7 2 15 9 8 7 15 16 15 21 0 5 9 28 19 52 36
79 40 103 26 125 -12 17 -12 27 6 73 15 39 18 67 14 101 -4 30 -1 55 7 68 16
25 27 26 30 3 1 -10 4 23 7 72 l6 90 12 -65 c15 -85 17 -92 28 -110 5 -8 10
-37 11 -65 1 -27 9 -69 18 -93 22 -58 25 -84 12 -104 -7 -12 -7 -24 1 -40 25
-57 40 -115 32 -130 -9 -16 14 -58 33 -58 6 0 3 9 -7 20 -16 18 -16 20 -2 20
22 0 21 9 -12 108 -21 63 -24 85 -15 93 8 7 18 2 33 -17 12 -15 24 -24 28 -20
4 3 -6 19 -21 35 -24 25 -28 35 -23 68 3 21 6 181 6 356 l1 317 38 0 c30 0 45
7 72 35 19 19 38 35 43 35 5 0 27 -16 50 -35z m-1252 -231 l86 -86 -13 -46
c-7 -26 -18 -66 -24 -89 l-11 -42 -73 77 -74 77 -118 -110 c-66 -60 -158 -147
-205 -193 l-86 -84 -16 43 c-8 24 -18 52 -22 62 -5 12 -2 17 10 17 12 0 15 5
11 16 -21 56 -20 58 77 147 52 48 104 87 114 87 11 0 68 46 129 105 60 57 113
104 119 105 5 0 48 -39 96 -86z m1126 -286 c-1 -46 -3 -11 -3 77 0 88 2 125 3
83 2 -42 2 -114 0 -160z m215 162 c3 -30 10 -65 17 -78 7 -13 14 -51 16 -85 1
-34 10 -80 19 -101 12 -29 13 -42 5 -52 -14 -17 -46 -18 -52 -1 -3 6 -6 -2 -6
-20 -1 -23 -5 -31 -15 -27 -7 3 -20 -2 -29 -10 -14 -14 -16 -14 -20 2 -2 11
-14 -6 -34 -48 -17 -36 -47 -81 -67 -99 l-36 -35 0 40 c0 34 8 47 60 101 41
43 60 71 60 88 0 14 7 42 15 61 8 20 14 59 13 87 -2 56 8 97 23 97 5 0 9 17 9
39 0 39 10 104 15 99 2 -2 5 -28 7 -58z m-802 -105 c10 -12 10 -15 -1 -15 -9
0 -10 -3 -3 -8 16 -10 37 -80 31 -103 -3 -11 1 -46 10 -77 8 -31 16 -79 18
-107 1 -27 6 -67 10 -87 7 -33 5 -38 -11 -38 -10 0 -28 10 -41 22 -20 19 -25
20 -33 8 -8 -12 -10 -11 -10 5 0 15 -10 10 -48 -28 -26 -26 -53 -47 -60 -47
-16 0 -16 -1 14 64 21 46 25 66 20 101 -5 32 -2 53 10 77 11 21 19 61 21 108
4 123 13 158 34 145 5 -4 10 19 10 52 l2 58 7 -57 c4 -32 13 -65 20 -73z
m-578 23 c37 -40 68 -78 68 -84 0 -6 -6 -32 -14 -57 -12 -40 -12 -47 0 -47 17
0 17 -13 0 -59 -10 -27 -14 -31 -19 -18 -8 20 -57 23 -76 5 -11 -11 -12 -9 -6
10 4 13 2 22 -4 22 -7 0 -11 -33 -11 -90 l0 -90 -22 11 c-13 7 -30 15 -38 19
-44 20 -44 110 0 110 11 0 20 5 20 10 0 6 -6 10 -14 10 -15 0 -19 10 -31 68
-10 50 -66 70 -97 35 -8 -10 -23 -50 -33 -90 -15 -64 -19 -71 -34 -61 -10 6
-22 23 -28 39 -7 17 -19 29 -34 31 -20 3 -13 12 56 73 44 39 116 105 160 147
44 43 82 78 85 78 2 0 35 -33 72 -72z m-573 -31 c1 -27 5 -46 9 -43 13 8 31
-54 30 -100 0 -23 9 -58 21 -82 21 -40 21 -44 6 -76 -16 -34 -15 -52 11 -158
5 -20 0 -33 -20 -55 -24 -25 -26 -36 -27 -113 l-1 -85 -13 50 -12 50 -5 -45
-4 -45 -8 41 c-8 38 -10 41 -43 42 -20 1 -38 4 -41 7 -3 3 -1 26 6 51 10 36
10 50 -1 71 -12 22 -11 34 6 90 17 56 18 70 7 103 -11 32 -10 45 3 77 8 21 15
61 16 88 1 59 26 140 34 109 2 -10 6 13 7 51 1 51 4 63 10 45 4 -14 8 -47 9
-73z m741 -77 c7 -4 14 -27 17 -51 2 -24 8 -64 13 -89 5 -25 9 -70 8 -100 0
-34 5 -66 16 -85 17 -31 21 -65 9 -65 -5 0 -25 18 -45 39 -29 31 -38 36 -41
23 -2 -11 21 -43 62 -84 36 -37 63 -70 60 -72 -3 -3 -32 21 -64 54 l-58 59
-69 -61 c-84 -74 -89 -64 -8 17 40 39 60 67 60 83 0 23 -1 23 -26 -7 -27 -32
-52 -34 -35 -3 5 10 9 34 8 55 -1 31 -4 36 -19 31 -10 -3 -18 -1 -18 5 0 6 6
11 13 11 9 0 14 12 14 33 0 17 6 46 13 62 17 39 18 45 9 72 -5 13 -2 43 8 75
13 44 17 49 24 33 5 -13 8 8 9 60 l2 80 13 -84 c8 -46 19 -87 25 -91z m1539
35 c1 -17 6 -36 13 -43 6 -6 12 -40 13 -74 1 -35 7 -80 14 -100 10 -31 10 -41
-3 -61 -15 -22 -14 -29 5 -90 19 -60 19 -68 5 -88 -13 -20 -13 -26 0 -57 19
-46 12 -66 -21 -59 -20 3 -26 0 -31 -20 -5 -17 -9 -21 -14 -13 -5 8 -16 0 -34
-26 l-26 -39 0 50 c-1 28 -3 74 -5 103 -3 47 -1 56 21 74 27 24 31 46 9 54 -9
4 -15 19 -15 42 l0 35 -23 -21 -23 -22 -27 28 c-15 15 -27 36 -27 46 0 9 -5
14 -10 11 -10 -6 -90 57 -98 77 -6 14 25 8 38 -7 7 -9 26 -25 42 -36 l28 -20
0 88 c0 51 -4 82 -9 75 -6 -11 -11 -10 -25 3 -29 29 -13 65 29 65 43 0 58 -39
28 -72 -9 -10 -11 -18 -5 -18 6 0 14 5 17 10 12 20 35 10 35 -15 0 -14 4 -25
9 -25 9 0 -2 -70 -18 -113 -16 -41 -14 -47 17 -47 15 0 22 4 16 8 -6 4 -10 16
-8 27 2 11 6 49 9 85 7 69 32 143 46 134 5 -3 9 23 10 58 0 44 3 57 9 43 5
-11 9 -34 9 -50z m-1230 -16 c-23 -74 -23 -80 -2 -72 13 5 15 3 9 -13 -4 -10
-14 -44 -22 -74 -8 -30 -17 -62 -20 -72 -3 -12 0 -18 10 -18 26 0 -26 -111
-65 -138 l-34 -24 -3 48 c-3 43 0 50 36 88 46 48 62 76 62 108 0 35 -36 87
-66 94 -26 7 -25 7 37 70 35 35 66 64 70 64 4 0 -2 -27 -12 -61z m373 14 c15
-13 19 -26 14 -51 -4 -27 -2 -33 9 -28 19 7 19 5 -6 -73 -15 -44 -31 -74 -50
-89 l-29 -24 0 92 c0 84 2 95 25 122 14 17 23 33 20 37 -4 3 -17 -7 -29 -22
l-23 -29 -22 28 c-12 15 -24 24 -28 20 -4 -3 6 -19 20 -34 26 -28 27 -31 27
-160 0 -144 -3 -151 -54 -111 -75 59 -73 164 3 110 45 -32 49 -25 9 17 -58 59
-72 116 -42 173 29 57 106 68 156 22z m-1006 -136 c10 -38 9 -48 -2 -58 -20
-16 -17 -73 5 -100 16 -19 16 -25 5 -37 -8 -7 -14 -24 -14 -37 0 -30 44 -83
72 -87 12 -2 23 -9 26 -15 3 -10 -13 -13 -58 -13 -59 0 -64 2 -116 46 -29 25
-51 50 -48 56 3 5 -2 20 -11 34 -28 43 -7 40 40 -6 25 -24 45 -40 45 -34 0 5
-20 29 -44 53 l-44 43 14 41 c8 22 21 68 30 101 8 34 23 67 31 73 26 20 55 -6
69 -60z m544 28 c34 -18 55 -71 41 -106 -5 -13 -25 -40 -45 -58 l-36 -35 0 47
c0 36 6 52 25 71 26 26 33 56 14 56 -5 0 -8 -4 -5 -8 2 -4 -5 -19 -15 -32
l-20 -25 4 33 c2 17 0 32 -4 32 -4 0 -9 -15 -11 -32 l-3 -33 -16 29 c-12 21
-18 25 -24 16 -5 -9 1 -21 18 -36 23 -19 27 -31 27 -74 0 -27 -4 -50 -9 -50
-5 0 -23 16 -40 35 -43 50 -44 114 -2 156 33 32 58 36 101 14z m815 -19 c0
-42 -29 -57 -56 -30 -31 32 -18 66 24 62 28 -3 32 -7 32 -32z m-1561 -52 c13
-12 14 -19 4 -37 l-12 -22 -7 25 -7 25 -7 -23 c-6 -18 -10 -20 -21 -11 -17 14
-18 46 -1 52 22 10 35 7 51 -9z m380 -20 c9 -8 16 -22 16 -30 0 -15 -68 -84
-82 -84 -5 0 -8 22 -8 49 0 40 4 53 22 65 28 20 33 20 52 0z m1579 -172 c27
-24 47 -47 45 -52 -2 -5 -52 38 -113 95 -60 57 -114 104 -119 105 -4 0 -57
-46 -117 -101 -60 -56 -112 -99 -115 -97 -3 3 48 55 113 116 l117 111 71 -67
c38 -37 92 -86 118 -110z m-2048 158 c-3 -5 -1 -10 6 -10 7 0 21 -7 31 -17 26
-23 26 -143 0 -167 -18 -15 -21 -15 -45 5 -28 22 -35 57 -15 77 9 9 16 8 30
-5 23 -21 23 -16 -2 32 -11 22 -17 48 -14 58 5 15 3 17 -7 11 -12 -6 -12 -5 0
9 15 18 26 23 16 7z m132 -27 c3 -9 1 -34 -4 -57 -10 -33 -9 -42 4 -52 10 -6
14 -18 10 -27 -4 -12 13 -33 63 -74 39 -31 70 -61 70 -66 0 -11 -14 -1 -103
76 l-67 59 -85 -72 c-47 -40 -88 -70 -92 -67 -5 6 16 26 105 98 l46 36 -3 62
c-2 48 2 67 15 82 21 23 33 24 41 2z m1903 -420 l0 -263 -30 0 -30 0 0 78 c0
90 -16 116 -66 110 -41 -4 -55 -39 -52 -120 l4 -68 -93 0 -93 0 0 258 -1 257
93 86 92 86 88 -81 88 -81 0 -262z m-1348 382 c0 -5 -5 -11 -11 -13 -6 -2 -11
4 -11 13 0 9 5 15 11 13 6 -2 11 -8 11 -13z m428 5 c0 -5 16 -28 36 -50 26
-29 42 -39 55 -35 11 4 19 2 19 -4 0 -13 -40 -24 -70 -19 -26 4 -78 118 -54
118 8 0 14 -4 14 -10z m-1135 -10 c4 -6 1 -17 -5 -26 -11 -12 -14 -12 -26 3
-7 10 -14 21 -14 26 0 11 38 8 45 -3z m745 -10 c0 -5 14 -16 30 -25 27 -14 30
-21 30 -60 0 -25 -3 -45 -6 -45 -17 0 -63 36 -78 60 -17 29 -21 62 -9 73 10
10 33 8 33 -3z m-232 -38 c3 -28 -3 -39 -40 -72 -24 -22 -46 -39 -49 -40 -4 0
-7 24 -7 53 0 44 4 55 26 74 38 32 66 26 70 -15z m-130 -8 c17 -12 22 -25 22
-60 0 -52 -17 -58 -55 -19 -27 26 -32 64 -13 83 15 15 19 15 46 -4z m710 -98
c44 -45 62 -72 62 -90 0 -14 5 -26 11 -26 8 0 10 19 5 65 -7 65 -6 65 19 65
24 0 25 -2 25 -72 0 -53 4 -76 17 -90 9 -10 14 -20 12 -22 -3 -4 -421 -10
-454 -7 -10 1 225 241 236 241 3 0 33 -29 67 -64z m108 44 c25 0 43 -3 41 -7
-9 -15 -110 -9 -115 6 -3 10 0 12 12 8 10 -4 38 -7 62 -7z m-1000 -71 l74 -62
0 -198 0 -199 -86 0 -86 0 3 108 3 107 -58 3 -57 3 3 -111 c3 -99 1 -110 -14
-110 -17 0 -18 16 -17 198 l0 197 77 63 c42 34 78 62 80 62 2 0 37 -28 78 -61z
m283 34 c-7 -19 -7 -29 0 -31 26 -9 8 -22 -29 -22 -22 0 -40 3 -40 8 0 6 69
70 77 72 1 0 -2 -12 -8 -27z m321 -40 c0 -30 -3 -33 -28 -33 -16 0 -37 9 -47
20 -10 11 -13 20 -7 20 7 0 12 13 12 29 l0 28 35 -16 c29 -13 34 -21 35 -48z
m65 37 c-6 -26 -4 -30 16 -30 21 0 22 -1 4 -20 -10 -11 -31 -20 -47 -20 -25 0
-28 3 -28 33 0 24 7 36 28 49 15 9 28 17 30 17 2 1 1 -12 -3 -29z m-196 -53
l61 -58 0 -190 0 -189 -125 0 -125 0 0 192 0 192 57 58 c32 32 61 57 64 56 4
-2 35 -29 68 -61z m1011 8 c0 -48 -2 -55 -20 -55 -17 0 -20 7 -20 49 0 39 4
51 18 54 9 3 18 5 20 6 1 0 2 -24 2 -54z m-1256 -31 c22 -9 20 -41 -5 -67 -22
-22 -22 -22 -17 -1 3 12 1 29 -4 38 -5 9 -6 21 -3 26 7 12 8 12 29 4z m-48
-60 c1 -39 -11 -74 -24 -74 -4 0 -7 25 -6 55 2 69 1 68 17 62 6 -2 12 -21 13
-43z m424 38 c0 -9 -28 -30 -34 -25 -13 13 -5 29 14 29 11 0 20 -2 20 -4z
m752 -79 l68 -67 0 -123 0 -123 -140 0 -140 0 0 120 0 121 67 69 c37 39 69 70
72 70 3 0 36 -30 73 -67z m96 45 c16 -16 15 -48 -1 -48 -24 0 -48 25 -41 43 7
20 25 22 42 5z m-1320 -48 c3 -21 2 -22 -12 -11 -19 16 -21 44 -3 39 6 -3 14
-15 15 -28z m954 6 c7 -33 -8 -57 -22 -36 -17 26 -11 60 11 60 3 0 9 -11 11
-24z m-1432 -16 c11 -11 20 -31 20 -44 0 -16 7 -27 20 -31 44 -14 37 -105 -11
-151 -17 -16 -36 -40 -41 -54 l-10 -25 -10 25 c-7 20 -6 27 8 35 30 18 69 54
58 55 -6 0 -19 -9 -29 -20 -10 -11 -24 -20 -30 -20 -20 0 -4 50 21 67 13 8 24
20 24 25 0 5 -10 2 -22 -6 -32 -23 -34 -21 -30 24 3 25 0 40 -7 40 -6 0 -11
-15 -11 -32 -1 -31 -2 -32 -15 -14 -8 10 -16 24 -18 30 -2 6 -8 8 -12 4 -4 -4
4 -25 19 -47 20 -29 26 -49 25 -80 -3 -49 -19 -53 -58 -13 -36 35 -49 104 -26
138 8 13 20 24 25 24 6 0 10 11 10 24 0 25 41 66 66 66 8 0 23 -9 34 -20z
m608 -4 c4 -17 -14 -46 -28 -46 -8 0 -11 50 -3 63 8 13 28 2 31 -17z m1787 -1
c14 -13 25 -31 25 -40 0 -8 9 -24 20 -35 39 -39 21 -139 -31 -166 -41 -21 -59
-17 -23 5 31 19 52 41 39 41 -4 0 -19 -9 -33 -21 l-27 -21 -3 28 c-4 27 -1 31
52 70 11 7 17 17 13 20 -4 4 -17 -2 -30 -14 -31 -29 -37 -28 -37 7 0 18 8 34
23 44 12 8 19 18 15 23 -13 12 -48 -27 -49 -55 0 -25 -1 -25 -16 7 -9 17 -20
32 -25 32 -13 0 -9 -13 17 -55 25 -42 33 -95 14 -95 -7 0 -27 16 -45 36 -35
37 -45 35 -18 -4 8 -12 28 -29 45 -37 32 -17 42 -65 14 -65 -8 0 -15 6 -15 13
0 7 -10 23 -23 37 -65 71 -77 133 -32 174 14 13 25 29 25 37 0 20 41 59 62 59
10 0 30 -11 43 -25z m-1854 -38 c-13 -13 -15 1 -4 30 7 17 8 17 11 -1 2 -10
-1 -23 -7 -29z m408 19 c8 -9 11 -54 9 -132 -3 -111 -4 -119 -23 -119 -19 0
-20 8 -23 120 -1 66 0 126 3 133 6 16 20 15 34 -2z m401 -131 l0 -145 -25 0
c-24 0 -25 2 -25 63 l0 62 -52 0 -53 0 -3 -62 -3 -63 -99 0 -100 0 0 145 0
145 180 0 180 0 0 -145z m-876 99 c3 -9 6 -23 6 -32 0 -13 -3 -12 -15 4 -16
21 -19 44 -6 44 5 0 12 -7 15 -16z m47 -23 c-12 -22 -31 -28 -31 -10 0 23 22
51 32 41 7 -7 6 -17 -1 -31z m917 27 c-6 -18 -28 -21 -28 -4 0 9 7 16 16 16 9
0 14 -5 12 -12z m-878 -13 c0 -8 -4 -15 -10 -15 -5 0 -10 7 -10 15 0 8 5 15
10 15 6 0 10 -7 10 -15z m41 -24 c-7 -12 -16 -21 -21 -21 -14 0 -12 34 2 48
18 18 32 -2 19 -27z m798 17 c5 -13 7 -27 4 -31 -8 -13 -33 14 -33 34 0 26 19
24 29 -3z m31 -79 c0 -38 -4 -68 -8 -65 -8 4 -8 40 -3 124 1 6 3 12 6 12 3 0
5 -32 5 -71z m-1190 -44 l0 -105 -40 0 -40 0 0 103 0 103 40 2 40 3 0 -106z
m311 83 c5 -97 4 -138 -2 -138 -10 0 -20 59 -14 88 l6 27 -17 -22 c-9 -13 -20
-23 -25 -23 -16 0 -9 30 11 50 11 11 20 25 20 30 0 21 20 9 21 -12z m-77 -24
c11 -27 7 -37 -9 -24 -16 14 -20 40 -6 40 5 0 12 -7 15 -16z m136 -7 c0 -14
-20 -37 -32 -37 -12 0 -10 24 4 38 16 16 28 15 28 -1z m790 -2 c16 -19 3 -40
-16 -24 -15 13 -19 39 -5 39 5 0 14 -7 21 -15z m70 6 c0 -17 -12 -41 -21 -41
-10 0 -12 33 -2 43 9 10 23 9 23 -2z m620 -87 c0 -72 -1 -74 -25 -74 -24 0
-25 2 -25 73 0 77 12 106 37 86 9 -8 13 -36 13 -85z m-800 -19 l0 -55 -40 0
-40 0 0 55 0 55 40 0 40 0 0 -55z m-812 15 c3 -21 2 -22 -12 -11 -19 16 -21
44 -3 39 6 -3 14 -15 15 -28z m922 -3 c0 -20 -1 -20 -16 -5 -9 9 -13 21 -9 27
10 16 25 3 25 -22z m70 13 c0 -11 -7 -20 -15 -20 -18 0 -19 12 -3 28 16 16 18
15 18 -8z m-942 -2 c-6 -18 -28 -21 -28 -4 0 9 7 16 16 16 9 0 14 -5 12 -12z
m82 3 c0 -11 -31 -44 -36 -39 -2 2 -1 14 3 26 5 21 33 32 33 13z m-526 -10 c6
-9 -31 -45 -56 -54 -25 -9 -23 12 4 40 22 24 43 29 52 14z m2196 -21 c19 -27
20 -30 4 -30 -18 0 -64 37 -64 52 0 20 41 5 60 -22z m-832 -23 c16 5 16 5 0
-12 -9 -10 -23 -15 -32 -12 -18 7 -22 27 -6 27 6 0 11 10 11 23 2 18 3 17 6
-5 3 -20 8 -25 21 -21z m-888 -13 c0 -17 -17 -18 -23 -1 -3 9 -7 9 -19 -1 -17
-14 -31 -3 -20 14 18 28 62 19 62 -12z m-82 8 c2 -7 -3 -12 -12 -12 -9 0 -16
7 -16 16 0 17 22 14 28 -4z m113 -15 c-16 -16 -26 0 -10 19 9 11 15 12 17 4 2
-6 -1 -17 -7 -23z m1888 -24 c11 -3 21 -9 21 -14 0 -5 -569 -9 -1335 -9 -832
0 -1335 4 -1335 9 0 6 21 12 48 14 76 6 2577 6 2601 0z"/>
<path d="M2096 1673 c-3 -3 -5 -34 -4 -67 l1 -61 7 60 7 60 1 -59 c2 -44 5
-57 13 -49 7 7 9 29 4 62 -7 50 -16 67 -29 54z"/>
<path d="M2180 1415 c0 -163 4 -255 10 -255 6 0 10 90 10 249 0 190 3 251 13
254 6 3 2 6 -10 6 l-23 1 0 -255z"/>
<path d="M2290 1615 c0 -30 5 -55 10 -55 6 0 10 25 10 55 0 30 -4 55 -10 55
-5 0 -10 -25 -10 -55z"/>
<path d="M2251 1563 c-1 -26 2 -31 15 -26 9 3 11 9 6 12 -5 3 -12 15 -15 26
-3 13 -5 9 -6 -12z"/>
<path d="M2050 853 c1 -11 50 -46 50 -35 0 10 -33 42 -43 42 -4 0 -7 -3 -7 -7z"/>
<path d="M770 1485 c-67 -62 -121 -105 -133 -105 -12 0 -53 -31 -98 -76 -93
-90 -81 -95 17 -7 39 34 88 73 111 85 63 35 246 208 219 208 -1 0 -53 -47
-116 -105z"/>
<path d="M802 1419 c-28 -28 -52 -53 -52 -56 0 -3 21 13 46 37 26 24 51 39 60
36 15 -6 18 2 6 21 -5 8 -24 -5 -60 -38z"/>
<path d="M679 1302 l-44 -47 45 40 c25 22 47 41 49 43 2 1 2 4 0 7 -3 2 -25
-17 -50 -43z"/>
<path d="M580 1225 c-13 -14 -19 -25 -13 -25 12 0 48 38 41 45 -2 3 -15 -6
-28 -20z"/>
<path d="M810 1284 c-34 -35 -44 -50 -27 -39 27 17 97 83 97 91 0 14 -22 -3
-70 -52z"/>
<path d="M860 1185 c-6 -8 -9 -23 -5 -35 8 -25 51 -27 64 -2 20 38 -31 71 -59
37z m44 -12 c9 -24 -9 -39 -29 -23 -12 10 -13 16 -4 26 15 19 25 18 33 -3z"/>
<path d="M2515 1060 c-27 -30 -12 -34 15 -5 13 14 19 25 13 25 -5 0 -18 -9
-28 -20z"/>
<path d="M705 1010 c16 -16 31 -28 33 -25 7 7 -39 55 -52 55 -5 0 3 -13 19
-30z"/>
<path d="M580 889 c0 -5 4 -8 9 -4 5 3 12 1 16 -5 3 -5 11 -10 17 -10 7 0 6 6
-2 15 -14 17 -40 20 -40 4z"/>
<path d="M2230 785 l0 -55 55 0 55 0 0 55 0 55 -55 0 -55 0 0 -55z m63 37 c3
-4 -6 -21 -19 -37 l-24 -30 0 32 c0 28 9 40 32 42 4 1 9 -2 11 -7z m37 -26 c0
-14 -4 -28 -10 -31 -6 -4 -10 7 -10 24 0 17 5 31 10 31 6 0 10 -11 10 -24z
m-17 -53 c-13 -2 -33 -2 -45 0 -13 2 -3 4 22 4 25 0 35 -2 23 -4z"/>
<path d="M2370 785 l0 -55 50 0 50 0 0 55 0 55 -50 0 -50 0 0 -55z m90 9 c0
-21 -4 -33 -10 -29 -17 10 -11 65 7 65 2 0 3 -16 3 -36z m-48 -4 c-22 -38 -32
-38 -32 0 0 25 4 30 25 30 24 0 24 0 7 -30z m31 -47 c-13 -2 -33 -2 -45 0 -13
2 -3 4 22 4 25 0 35 -2 23 -4z"/>
<path d="M2232 648 l3 -53 53 -3 52 -3 0 55 0 56 -56 0 -55 0 3 -52z m58 35
c0 -5 -9 -19 -20 -33 l-20 -25 0 33 c0 25 4 32 20 32 11 0 20 -3 20 -7z m40
-29 c0 -13 -4 -24 -10 -24 -5 0 -10 14 -10 31 0 17 4 28 10 24 6 -3 10 -17 10
-31z m-17 -41 c-13 -2 -33 -2 -45 0 -13 2 -3 4 22 4 25 0 35 -2 23 -4z"/>
<path d="M2370 645 l0 -55 50 0 50 0 0 55 0 55 -50 0 -50 0 0 -55z m43 15
c-21 -36 -33 -38 -33 -7 0 29 7 37 32 37 19 0 19 -1 1 -30z m47 0 c0 -16 -4
-30 -10 -30 -11 0 -14 43 -3 53 11 12 13 8 13 -23z m-17 -47 c-13 -2 -33 -2
-45 0 -13 2 -3 4 22 4 25 0 35 -2 23 -4z"/>
<path d="M2230 460 l0 -60 40 0 40 0 0 60 0 60 -40 0 -40 0 0 -60z m65 0 c0
-29 -4 -36 -22 -38 -21 -3 -23 1 -23 38 0 37 2 41 23 38 18 -2 22 -9 22 -38z"/>
<path d="M1471 757 c-24 -29 17 -70 46 -46 20 17 12 53 -13 57 -11 2 -26 -3
-33 -11z m44 -18 c0 -7 -8 -15 -17 -17 -18 -3 -25 18 -11 32 10 10 28 1 28
-15z"/>
<path d="M1393 653 c59 -2 155 -2 215 0 59 1 10 3 -108 3 -118 0 -167 -2 -107
-3z"/>
<path d="M482 712 c-9 -6 -12 -26 -10 -58 l3 -49 54 0 54 0 1 55 1 55 -45 2
c-25 2 -51 -1 -58 -5z m88 -52 c0 -40 0 -40 -40 -40 -40 0 -40 0 -40 40 0 40
0 40 40 40 40 0 40 0 40 -40z"/>
<path d="M522 678 c-18 -18 -15 -27 8 -21 11 3 20 12 20 19 0 17 -12 18 -28 2z"/>
<path d="M513 633 c9 -2 25 -2 35 0 9 3 1 5 -18 5 -19 0 -27 -2 -17 -5z"/>
<path d="M620 705 c-6 -7 -10 -33 -8 -57 l3 -43 53 -3 53 -3 -3 58 -3 58 -42
2 c-25 1 -46 -4 -53 -12z m90 -35 c0 -25 -4 -30 -25 -30 -14 0 -25 5 -25 11 0
6 7 9 15 5 10 -4 15 1 15 15 0 27 -21 20 -37 -12 -12 -23 -11 -24 25 -30 l37
-6 -42 -2 -43 -1 0 40 c0 40 0 40 40 40 38 0 40 -2 40 -30z"/>
<path d="M616 534 c-3 -8 -3 -33 0 -55 l7 -39 48 0 49 0 0 55 0 55 -49 0 c-35
0 -51 -4 -55 -16z m94 -37 l0 -43 -40 4 c-39 4 -40 5 -40 43 0 39 0 39 40 39
l40 0 0 -43z"/>
<path d="M656 504 c-3 -9 -6 -16 -6 -17 0 -1 11 -2 23 -2 18 0 23 5 19 18 -5
21 -28 22 -36 1z"/>
<path d="M1064 765 c-9 -21 3 -45 21 -45 21 0 30 27 15 45 -16 19 -29 19 -36
0z"/>
<path d="M1046 694 c-10 -9 -16 -33 -16 -60 l0 -44 55 0 55 0 0 44 c0 50 -19
76 -55 76 -13 0 -31 -7 -39 -16z m74 -14 c0 -5 3 -15 6 -24 3 -9 1 -16 -5 -16
-6 0 -11 9 -11 20 0 11 -4 20 -9 20 -5 0 -7 -9 -4 -20 4 -16 0 -20 -21 -20
-21 0 -26 5 -26 24 0 15 7 26 18 28 22 5 52 -2 52 -12z m0 -67 c0 -8 -13 -13
-35 -13 -22 0 -35 5 -35 13 0 7 14 12 35 13 23 0 35 -4 35 -13z"/>
<path d="M1007 553 c-4 -3 -7 -21 -7 -40 l0 -33 77 0 c42 0 74 -2 71 -5 -3 -3
-35 -6 -72 -6 -36 -1 -69 -5 -72 -10 -3 -5 33 -9 80 -9 l86 0 0 55 0 55 -78 0
c-43 0 -82 -3 -85 -7z m43 -33 c0 -31 -16 -41 -26 -15 -8 19 2 45 16 45 5 0
10 -13 10 -30z m60 -5 c0 -18 -5 -25 -20 -25 -15 0 -20 7 -20 25 0 18 5 25 20
25 15 0 20 -7 20 -25z m40 0 c0 -16 -6 -25 -15 -25 -9 0 -15 9 -15 25 0 16 6
25 15 25 9 0 15 -9 15 -25z"/>
<path d="M1000 405 c0 -18 14 -19 41 -5 15 8 19 7 19 -5 0 -16 12 -20 23 -8
13 13 -16 33 -49 33 -24 0 -34 -5 -34 -15z"/>
<path d="M1932 618 c4 -28 42 -37 52 -13 9 24 -1 35 -30 35 -21 0 -25 -4 -22
-22z"/>
<path d="M1982 571 c-18 -24 -30 -31 -57 -31 -21 0 -35 -5 -36 -12 -7 -70 -6
-118 2 -118 5 0 9 11 9 25 0 20 5 25 25 25 20 0 25 -5 25 -26 0 -14 4 -23 9
-19 5 3 8 31 6 62 -2 49 0 58 23 78 13 12 23 27 21 34 -3 7 -14 0 -27 -18z
m-44 -53 c22 -22 14 -48 -13 -48 -21 0 -25 5 -25 30 0 31 17 39 38 18z"/>
<path d="M1992 528 c-21 -21 -13 -32 9 -12 30 27 53 8 60 -52 l6 -49 1 51 c2
54 -10 74 -43 74 -12 0 -26 -5 -33 -12z"/>
<path d="M2010 464 c0 -9 7 -14 17 -12 25 5 28 28 4 28 -12 0 -21 -6 -21 -16z"/>
<path d="M1840 395 c0 -8 4 -15 9 -15 5 0 11 7 15 15 3 9 0 15 -9 15 -8 0 -15
-7 -15 -15z"/>
<path d="M210 442 c0 -10 43 -52 54 -52 10 0 -36 59 -46 59 -5 1 -8 -3 -8 -7z"/>
<path d="M2662 608 c-7 -7 -12 -21 -12 -32 1 -18 3 -17 16 7 17 31 15 44 -4
25z"/>
<path d="M2617 503 c-3 -5 -2 -15 2 -22 5 -7 11 -9 14 -4 3 5 2 15 -2 22 -5 7
-11 9 -14 4z"/>
<path d="M1370 540 l0 -60 60 0 61 0 -3 58 -3 57 -57 3 -58 3 0 -61z m100 0
l0 -50 -45 0 -45 0 0 44 c0 41 2 45 28 49 64 10 62 11 62 -43z"/>
<path d="M1410 558 c0 -7 -3 -24 -6 -38 l-6 -25 17 24 c14 18 19 20 26 10 6
-9 9 -10 9 -2 0 6 3 18 6 27 5 12 0 16 -20 16 -14 0 -26 -6 -26 -12z"/>
<path d="M1520 540 l0 -60 55 0 55 0 0 60 0 60 -55 0 -55 0 0 -60z m100 0 l0
-50 -45 0 -45 0 0 44 c0 47 6 52 63 55 26 1 27 -1 27 -49z"/>
<path d="M1550 538 c1 -27 2 -30 11 -15 5 9 14 17 19 17 5 0 11 -8 13 -17 3
-10 5 -3 6 15 1 28 -2 32 -24 32 -22 0 -25 -4 -25 -32z"/>
<path d="M520 425 c0 -25 5 -45 10 -45 6 0 10 20 10 45 0 25 -4 45 -10 45 -5
0 -10 -20 -10 -45z"/>
<path d="M1423 2695 c-38 -28 0 -40 151 -45 l143 -5 58 -57 c33 -32 74 -65 92
-73 30 -15 36 -15 68 1 19 9 35 20 35 25 0 13 -12 11 -34 -6 -34 -26 -56 -17
-139 60 l-80 75 -149 0 c-92 0 -148 4 -148 10 0 6 57 10 153 10 l152 -1 80
-74 c77 -72 106 -87 120 -64 4 6 17 14 29 19 18 8 16 9 -11 7 -18 0 -33 -5
-33 -9 0 -18 -22 -6 -67 38 -99 94 -91 91 -255 97 -113 4 -151 2 -165 -8z"/>
<path d="M813 2551 c-13 -20 0 -41 25 -41 8 0 27 -11 44 -25 36 -30 49 -31 73
-5 10 12 25 18 32 16 7 -3 13 -2 13 3 0 5 9 11 21 14 24 7 23 34 -3 51 -12 7
-29 7 -60 -1 -27 -7 -49 -8 -60 -2 -28 15 -72 10 -85 -10z m93 -23 c19 -17 22
-17 27 -3 13 33 97 41 97 9 0 -10 -8 -12 -29 -8 -28 6 -34 3 -67 -41 -12 -15
-17 -17 -21 -6 -12 30 -45 53 -69 48 -15 -3 -24 0 -24 9 0 29 51 25 86 -8z"/>
<path d="M1452 2549 c-149 -28 -234 -190 -173 -331 20 -48 77 -103 127 -124
94 -39 228 0 285 82 124 180 -25 412 -239 373z m144 -32 c163 -84 163 -314 0
-400 -63 -33 -151 -29 -213 9 -70 43 -107 108 -107 187 1 99 43 164 134 207
52 24 136 23 186 -3z"/>
<path d="M1392 2490 c-43 -25 -58 -42 -78 -83 -31 -67 -30 -110 2 -175 30 -60
76 -100 125 -107 33 -5 33 -5 5 4 -83 28 -136 99 -136 184 0 59 14 94 52 134
46 47 116 68 176 53 192 -48 204 -303 17 -368 -21 -7 -24 -11 -10 -11 40 -1
105 50 134 104 44 83 16 192 -68 261 -29 24 -45 29 -100 32 -59 3 -72 0 -119
-28z"/>
<path d="M1490 2420 c0 -38 -5 -79 -12 -89 -15 -24 -4 -51 21 -51 23 0 38 37
22 53 -6 6 -11 41 -11 78 0 37 -4 71 -10 74 -6 4 -10 -20 -10 -65z"/>
<path d="M1362 2419 c2 -7 10 -15 17 -17 8 -3 12 1 9 9 -2 7 -10 15 -17 17 -8
3 -12 -1 -9 -9z"/>
<path d="M1645 2320 c-3 -5 3 -10 15 -10 12 0 18 5 15 10 -3 6 -10 10 -15 10
-5 0 -12 -4 -15 -10z"/>
<path d="M1365 2219 c-4 -6 -5 -13 -2 -16 7 -7 27 6 27 18 0 12 -17 12 -25 -2z"/>
<path d="M1490 2155 c0 -8 5 -15 10 -15 6 0 10 7 10 15 0 8 -4 15 -10 15 -5 0
-10 -7 -10 -15z"/>
<path d="M2377 2434 c-4 -4 -4 -10 -1 -15 6 -10 34 0 34 12 0 10 -24 12 -33 3z"/>
<path d="M1106 2414 c-11 -7 -16 -17 -13 -21 4 -4 15 1 24 10 22 21 14 30 -11
11z"/>
<path d="M1140 2418 c0 -8 10 -19 23 -25 l22 -10 -22 -7 c-13 -4 -23 -12 -23
-18 0 -6 -9 -3 -20 7 -11 10 -22 16 -25 13 -3 -3 3 -12 14 -22 15 -14 23 -15
44 -5 36 16 39 33 11 60 -18 17 -24 19 -24 7z"/>
<path d="M1906 2400 c-16 -17 -26 -33 -23 -36 11 -12 57 26 57 46 0 25 1 25
-34 -10z"/>
<path d="M1960 2404 c0 -19 7 -29 30 -37 l29 -11 -28 -12 c-26 -11 -50 -54
-30 -54 5 0 9 5 9 10 0 6 6 10 13 10 6 0 19 11 28 23 16 22 15 24 -17 60 -34
36 -34 36 -34 11z"/>
<path d="M1900 2320 c21 -18 37 -25 39 -18 5 14 -35 48 -58 48 -11 0 -5 -10
19 -30z"/>
<path d="M2175 2296 c-27 -28 -248 -241 -490 -473 -503 -481 -516 -494 -488
-487 11 3 83 67 160 142 123 121 281 272 636 612 208 198 237 228 237 244 0
20 5 23 -55 -38z"/>
<path d="M2194 2157 l-99 -102 90 86 c50 48 98 91 109 96 10 6 14 13 9 16 -5
3 -54 -40 -109 -96z"/>
<path d="M2185 2220 c-27 -30 -12 -34 15 -5 13 14 19 25 13 25 -5 0 -18 -9
-28 -20z"/>
<path d="M306 2100 c-20 -41 -42 -94 -50 -117 l-15 -43 134 0 c129 0 135 1
135 20 0 29 26 76 52 94 33 24 90 20 119 -6 16 -15 34 -22 52 -20 32 4 77 -36
77 -68 0 -19 6 -20 140 -20 87 0 140 -4 140 -10 0 -7 -150 -10 -429 -10 l-430
0 -15 -72 c-26 -117 -34 -168 -27 -171 3 -1 119 0 256 3 l250 6 -243 2 -243 2
5 28 c2 15 5 44 5 65 l1 37 453 -1 c428 0 451 -1 427 -17 -42 -28 -165 -150
-158 -157 3 -3 63 48 134 114 70 67 131 121 135 121 4 0 19 -13 32 -30 25 -29
29 -30 109 -30 53 0 89 5 96 12 10 10 17 10 32 0 11 -6 36 -12 57 -12 37 0 41
8 7 14 -11 3 -32 9 -47 15 -22 8 -36 7 -64 -4 -23 -10 -58 -14 -99 -12 -56 4
-66 7 -89 35 -29 35 -47 33 -105 -10 -30 -22 -35 -22 -438 -25 -224 -2 -417
-1 -429 2 -28 6 -31 40 -5 50 9 4 194 8 410 10 346 1 395 4 409 18 13 13 14
19 3 31 -10 13 -36 16 -130 16 l-118 0 -14 30 c-7 17 -25 36 -40 43 -16 6 -28
14 -28 17 0 3 -11 7 -25 8 -14 1 -37 9 -50 18 -18 12 -39 15 -76 12 -56 -6
-87 -29 -117 -89 l-17 -34 -90 0 c-76 0 -90 3 -93 17 -4 19 53 141 75 164 11
11 53 14 191 16 204 2 179 6 -55 10 l-162 3 -35 -75z"/>
<path d="M763 2163 c9 -2 25 -2 35 0 9 3 1 5 -18 5 -19 0 -27 -2 -17 -5z"/>
<path d="M1084 2138 c-14 -4 -40 -18 -59 -32 l-33 -25 -37 29 c-39 31 -60 37
-70 20 -3 -5 0 -7 9 -4 9 3 32 -10 58 -34 l43 -40 42 39 42 39 112 0 c62 0
109 3 106 7 -9 8 -181 10 -213 1z"/>
<path d="M923 2064 c42 -40 52 -45 78 -40 17 3 44 19 60 36 30 29 33 30 127
30 53 0 104 5 112 10 10 7 -21 10 -97 10 l-112 0 -46 -40 c-25 -22 -49 -40
-52 -40 -3 0 -25 18 -49 40 -24 22 -49 40 -56 40 -7 0 9 -21 35 -46z"/>
<path d="M2027 2059 c-40 -43 -28 -46 13 -4 19 19 30 35 24 35 -5 0 -22 -14
-37 -31z"/>
<path d="M1857 1914 c-16 -13 -27 -28 -25 -33 2 -5 21 6 42 25 22 19 33 34 25
34 -8 0 -27 -12 -42 -26z"/>
<path d="M1192 1838 c-10 -13 -2 -26 54 -84 67 -70 68 -65 3 16 -21 25 -39 54
-41 64 -3 17 -4 17 -16 4z"/>
<path d="M1770 1743 l-105 -108 108 105 c99 97 112 110 104 110 -1 0 -50 -48
-107 -107z"/>
<path d="M718 1683 c12 -2 32 -2 45 0 12 2 2 4 -23 4 -25 0 -35 -2 -22 -4z"/>
<path d="M1287 1662 c-10 -10 -17 -23 -17 -29 0 -6 -37 -45 -82 -87 -46 -42
-77 -76 -69 -76 15 0 161 138 161 153 0 6 7 19 17 29 9 10 14 20 11 23 -3 3
-12 -3 -21 -13z"/>
<path d="M2477 1618 c-89 -95 -90 -114 0 -25 43 42 85 77 92 77 8 0 24 -8 35
-17 21 -18 21 -18 2 5 -33 38 -63 29 -129 -40z"/>
<path d="M180 1628 l0 -28 223 1 c122 0 213 4 203 8 -10 4 -96 6 -190 4 -175
-2 -221 2 -195 18 8 5 126 8 262 7 228 -1 246 -2 232 -17 -8 -9 -54 -54 -102
-101 -123 -122 -173 -172 -173 -176 0 -13 23 6 104 83 210 201 194 189 216
175 22 -13 27 -3 8 16 -12 12 -4 18 42 25 14 2 -122 6 -303 8 l-327 4 0 -27z"/>
<path d="M2575 1637 c-1 -7 -8 -45 -15 -84 -14 -86 -34 -114 -102 -149 -27
-14 -48 -28 -45 -31 3 -3 29 8 59 24 59 32 98 81 98 127 1 17 6 44 13 60 l13
29 57 -53 c32 -29 59 -51 60 -49 1 2 -29 34 -66 71 -38 36 -70 61 -72 55z"/>
<path d="M180 1501 c0 -47 5 -115 11 -151 14 -90 40 -202 45 -197 4 4 -2 43
-31 227 -4 26 -8 132 -6 163 0 10 11 21 23 26 21 7 20 8 -10 13 l-32 5 0 -86z"/>
<path d="M1851 1504 c-45 -42 -91 -90 -103 -108 -21 -29 -19 -28 27 11 72 60
181 173 168 173 -6 0 -48 -34 -92 -76z"/>
<path d="M2752 1462 l41 -39 -22 -134 c-12 -74 -24 -145 -27 -159 -2 -14 7 7
20 45 32 94 60 259 45 264 -6 2 -26 16 -44 32 -49 43 -61 35 -13 -9z"/>
<path d="M1330 1305 c-52 -53 -88 -93 -80 -89 15 7 188 184 179 184 -2 0 -47
-43 -99 -95z"/>
<path d="M1710 1362 c0 -5 12 -19 27 -33 l26 -24 -23 33 c-25 33 -30 38 -30
24z"/>
</g>
</svg>
